Fira Mono-Bold.ufo
<glyph name="exclam" format="1">
  <advance width="600"/>
  <unicode hex="0021"/>
  <outline>
    <contour>
      <point x="215" y="693" type="line"/>
      <point x="236" y="256" type="line"/>
      <point x="365" y="256" type="line"/>
      <point x="385" y="693" type="line"/>
    </contour>
    <contour>
      <point x="250" y="165"/>
      <point x="209" y="124"/>
      <point x="209" y="74" type="curve" smooth="yes"/>
      <point x="209" y="24"/>
      <point x="250" y="-17"/>
      <point x="300" y="-17" type="curve" smooth="yes"/>
      <point x="351" y="-17"/>
      <point x="391" y="24"/>
      <point x="391" y="74" type="curve" smooth="yes"/>
      <point x="391" y="124"/>
      <point x="351" y="165"/>
      <point x="300" y="165" type="curve" smooth="yes"/>
    </contour>
  </outline>
</glyph>
<glyph name="parenleft" format="1">
  <advance width="600"/>
  <unicode hex="0028"/>
  <outline>
    <contour>
      <point x="302" y="534"/>
      <point x="357" y="652"/>
      <point x="461" y="789" type="curve"/>
      <point x="358" y="858" type="line"/>
      <point x="240" y="722"/>
      <point x="140" y="589"/>
      <point x="140" y="350" type="curve" smooth="yes"/>
      <point x="140" y="111"/>
      <point x="240" y="-22"/>
      <point x="358" y="-158" type="curve"/>
      <point x="461" y="-89" type="line"/>
      <point x="357" y="48"/>
      <point x="302" y="166"/>
      <point x="302" y="350" type="curve" smooth="yes"/>
    </contour>
  </outline>
</glyph>
<glyph name="parenright" format="1">
  <advance width="600"/>
  <unicode hex="0029"/>
  <outline>
    <contour>
      <point x="298" y="166"/>
      <point x="243" y="48"/>
      <point x="139" y="-89" type="curve"/>
      <point x="242" y="-158" type="line"/>
      <point x="360" y="-22"/>
      <point x="460" y="111"/>
      <point x="460" y="350" type="curve" smooth="yes"/>
      <point x="460" y="589"/>
      <point x="360" y="722"/>
      <point x="242" y="858" type="curve"/>
      <point x="139" y="789" type="line"/>
      <point x="243" y="652"/>
      <point x="298" y="534"/>
      <point x="298" y="350" type="curve" smooth="yes"/>
    </contour>
  </outline>
</glyph>
<glyph name="asterisk" format="1">
  <advance width="600"/>
  <unicode hex="002A"/>
  <outline>
    <contour>
      <point x="231" y="531" type="line"/>
      <point x="253" y="381" type="line"/>
      <point x="117" y="445" type="line"/>
      <point x="77" y="319" type="line"/>
      <point x="224" y="293" type="line"/>
      <point x="120" y="182" type="line"/>
      <point x="230" y="102" type="line"/>
      <point x="299" y="237" type="line"/>
      <point x="371" y="103" type="line"/>
      <point x="481" y="183" type="line"/>
      <point x="375" y="292" type="line"/>
      <point x="523" y="319" type="line"/>
      <point x="482" y="445" type="line"/>
      <point x="346" y="380" type="line"/>
      <point x="368" y="531" type="line"/>
    </contour>
  </outline>
</glyph>
<glyph name="at" format="1">
  <advance width="600"/>
  <unicode hex="0040"/>
  <outline>
    <contour>
      <point x="178" y="711"/>
      <point x="89" y="675"/>
      <point x="-2" y="595" type="curve"/>
      <point x="61" y="521" type="line"/>
      <point x="138" y="588"/>
      <point x="207" y="613"/>
      <point x="279" y="613" type="curve" smooth="yes"/>
      <point x="438" y="613"/>
      <point x="477" y="497"/>
      <point x="477" y="287" type="curve" smooth="yes"/>
      <point x="477" y="80"/>
      <point x="474" y="5"/>
      <point x="436" y="5" type="curve" smooth="yes"/>
      <point x="409" y="5"/>
      <point x="397" y="31"/>
      <point x="397" y="104" type="curve" smooth="yes"/>
      <point x="397" y="404" type="line"/>
      <point x="342" y="434"/>
      <point x="281" y="448"/>
      <point x="228" y="448" type="curve" smooth="yes"/>
      <point x="82" y="448"/>
      <point x="15" y="343"/>
      <point x="15" y="179" type="curve" smooth="yes"/>
      <point x="15" y="50"/>
      <point x="58" y="-49"/>
      <point x="177" y="-49" type="curve" smooth="yes"/>
      <point x="248" y="-49"/>
      <point x="295" y="-7"/>
      <point x="317" y="44" type="curve"/>
      <point x="321" y="44" type="line"/>
      <point x="330" y="-32"/>
      <point x="365" y="-94"/>
      <point x="441" y="-94" type="curve" smooth="yes"/>
      <point x="569" y="-94"/>
      <point x="599" y="44"/>
      <point x="599" y="296" type="curve" smooth="yes"/>
      <point x="599" y="547"/>
      <point x="524" y="711"/>
      <point x="287" y="711" type="curve" smooth="yes"/>
    </contour>
    <contour>
      <point x="240" y="348"/>
      <point x="250" y="345"/>
      <point x="262" y="339" type="curve"/>
      <point x="262" y="121" type="line"/>
      <point x="258" y="90"/>
      <point x="250" y="51"/>
      <point x="206" y="51" type="curve" smooth="yes"/>
      <point x="169" y="51"/>
      <point x="158" y="88"/>
      <point x="158" y="179" type="curve" smooth="yes"/>
      <point x="158" y="307"/>
      <point x="173" y="348"/>
      <point x="225" y="348" type="curve" smooth="yes"/>
    </contour>
  </outline>
</glyph>
<glyph name="B" format="1">
  <advance width="600"/>
  <unicode hex="0042"/>
  <outline>
    <contour>
      <point x="401" y="135"/>
      <point x="344" y="121"/>
      <point x="280" y="121" type="curve" smooth="yes"/>
      <point x="221" y="121" type="line"/>
      <point x="221" y="306" type="line"/>
      <point x="287" y="306" type="line" smooth="yes"/>
      <point x="356" y="306"/>
      <point x="401" y="282"/>
      <point x="401" y="210" type="curve" smooth="yes"/>
    </contour>
    <contour>
      <point x="375" y="441"/>
      <point x="345" y="417"/>
      <point x="275" y="417" type="curve" smooth="yes"/>
      <point x="221" y="417" type="line"/>
      <point x="221" y="576" type="line"/>
      <point x="270" y="576" type="line" smooth="yes"/>
      <point x="342" y="576"/>
      <point x="375" y="553"/>
      <point x="375" y="499" type="curve" smooth="yes"/>
    </contour>
    <contour>
      <point x="572" y="314"/>
      <point x="489" y="355"/>
      <point x="415" y="367" type="curve"/>
      <point x="483" y="384"/>
      <point x="542" y="433"/>
      <point x="542" y="516" type="curve" smooth="yes"/>
      <point x="542" y="651"/>
      <point x="419" y="693"/>
      <point x="276" y="693" type="curve" smooth="yes"/>
      <point x="55" y="693" type="line"/>
      <point x="55" y="0" type="line"/>
      <point x="286" y="0" type="line" smooth="yes"/>
      <point x="437" y="0"/>
      <point x="572" y="43"/>
      <point x="572" y="203" type="curve" smooth="yes"/>
    </contour>
  </outline>
</glyph>
<glyph name="C" format="1">
  <advance width="600"/>
  <unicode hex="0043"/>
  <outline>
    <contour>
      <point x="174" y="711"/>
      <point x="33" y="580"/>
      <point x="33" y="348" type="curve" smooth="yes"/>
      <point x="33" y="110"/>
      <point x="167" y="-17"/>
      <point x="356" y="-17" type="curve" smooth="yes"/>
      <point x="463" y="-17"/>
      <point x="538" y="25"/>
      <point x="590" y="77" type="curve"/>
      <point x="515" y="173" type="line"/>
      <point x="476" y="142"/>
      <point x="434" y="111"/>
      <point x="365" y="111" type="curve" smooth="yes"/>
      <point x="271" y="111"/>
      <point x="205" y="182"/>
      <point x="205" y="348" type="curve" smooth="yes"/>
      <point x="205" y="517"/>
      <point x="275" y="588"/>
      <point x="362" y="588" type="curve" smooth="yes"/>
      <point x="416" y="588"/>
      <point x="462" y="568"/>
      <point x="500" y="537" type="curve"/>
      <point x="581" y="635" type="line"/>
      <point x="523" y="683"/>
      <point x="458" y="711"/>
      <point x="358" y="711" type="curve" smooth="yes"/>
    </contour>
    <contour>
      <point x="361" y="693" type="move" name="top"/>
    </contour>
    <contour>
      <point x="352" y="0" type="move" name="bottom"/>
    </contour>
  </outline>
</glyph>
<glyph name="H" format="1">
  <advance width="600"/>
  <unicode hex="0048"/>
  <outline>
    <contour>
      <point x="549" y="0" type="line"/>
      <point x="549" y="693" type="line"/>
      <point x="383" y="693" type="line"/>
      <point x="383" y="430" type="line"/>
      <point x="217" y="430" type="line"/>
      <point x="217" y="693" type="line"/>
      <point x="51" y="693" type="line"/>
      <point x="51" y="0" type="line"/>
      <point x="217" y="0" type="line"/>
      <point x="217" y="289" type="line"/>
      <point x="383" y="289" type="line"/>
      <point x="383" y="0" type="line"/>
    </contour>
    <contour>
      <point x="300" y="347" type="move" name="center"/>
    </contour>
    <contour>
      <point x="559" y="0" type="move" name="bottomright"/>
    </contour>
    <contour>
      <point x="300" y="693" type="move" name="top"/>
    </contour>
  </outline>
</glyph>
<glyph name="I" format="1">
  <advance width="600"/>
  <unicode hex="0049"/>
  <outline>
    <contour>
      <point x="74" y="693" type="line"/>
      <point x="74" y="572" type="line"/>
      <point x="217" y="572" type="line"/>
      <point x="217" y="122" type="line"/>
      <point x="74" y="122" type="line"/>
      <point x="74" y="0" type="line"/>
      <point x="526" y="0" type="line"/>
      <point x="526" y="122" type="line"/>
      <point x="383" y="122" type="line"/>
      <point x="383" y="572" type="line"/>
      <point x="526" y="572" type="line"/>
      <point x="526" y="693" type="line"/>
    </contour>
    <contour>
      <point x="393" y="0" type="move" name="ogonek"/>
    </contour>
    <contour>
      <point x="300" y="693" type="move" name="top"/>
    </contour>
    <contour>
      <point x="64" y="693" type="move" name="topleft"/>
    </contour>
  </outline>
</glyph>
<glyph name="O" format="1">
  <advance width="600"/>
  <unicode hex="004F"/>
  <outline>
    <contour>
      <point x="578" y="572"/>
      <point x="482" y="711"/>
      <point x="300" y="711" type="curve" smooth="yes"/>
      <point x="118" y="711"/>
      <point x="22" y="567"/>
      <point x="22" y="347" type="curve" smooth="yes"/>
      <point x="22" y="122"/>
      <point x="118" y="-17"/>
      <point x="300" y="-17" type="curve" smooth="yes"/>
      <point x="482" y="-17"/>
      <point x="578" y="127"/>
      <point x="578" y="347" type="curve" smooth="yes"/>
    </contour>
    <contour>
      <point x="408" y="179"/>
      <point x="379" y="104"/>
      <point x="300" y="104" type="curve" smooth="yes"/>
      <point x="224" y="104"/>
      <point x="192" y="177"/>
      <point x="192" y="347" type="curve" smooth="yes"/>
      <point x="192" y="517"/>
      <point x="223" y="590"/>
      <point x="300" y="590" type="curve" smooth="yes"/>
      <point x="377" y="590"/>
      <point x="408" y="517"/>
      <point x="408" y="347" type="curve" smooth="yes"/>
    </contour>
    <contour>
      <point x="300" y="693" type="move" name="top"/>
    </contour>
  </outline>
</glyph>
<glyph name="P" format="1">
  <advance width="600"/>
  <unicode hex="0050"/>
  <outline>
    <contour>
      <point x="406" y="386"/>
      <point x="363" y="350"/>
      <point x="291" y="350" type="curve" smooth="yes"/>
      <point x="227" y="350" type="line"/>
      <point x="227" y="575" type="line"/>
      <point x="282" y="575" type="line" smooth="yes"/>
      <point x="365" y="575"/>
      <point x="406" y="540"/>
      <point x="406" y="467" type="curve" smooth="yes"/>
    </contour>
    <contour>
      <point x="577" y="619"/>
      <point x="469" y="693"/>
      <point x="280" y="693" type="curve" smooth="yes"/>
      <point x="61" y="693" type="line"/>
      <point x="61" y="0" type="line"/>
      <point x="227" y="0" type="line"/>
      <point x="227" y="230" type="line"/>
      <point x="302" y="230" type="line" smooth="yes"/>
      <point x="466" y="230"/>
      <point x="577" y="306"/>
      <point x="577" y="467" type="curve" smooth="yes"/>
    </contour>
  </outline>
</glyph>
<glyph name="Q" format="1">
  <advance width="600"/>
  <unicode hex="0051"/>
  <outline>
    <contour>
      <point x="575" y="572"/>
      <point x="485" y="711"/>
      <point x="303" y="711" type="curve" smooth="yes"/>
      <point x="121" y="711"/>
      <point x="32" y="567"/>
      <point x="32" y="347" type="curve" smooth="yes"/>
      <point x="32" y="122"/>
      <point x="116" y="-14"/>
      <point x="290" y="-14" type="curve" smooth="yes"/>
      <point x="411" y="-14"/>
      <point x="456" y="-69"/>
      <point x="500" y="-173" type="curve"/>
      <point x="635" y="-127" type="line"/>
      <point x="597" y="-15"/>
      <point x="538" y="22"/>
      <point x="432" y="40" type="curve"/>
      <point x="539" y="96"/>
      <point x="575" y="211"/>
      <point x="575" y="347" type="curve" smooth="yes"/>
    </contour>
    <contour>
      <point x="402" y="179"/>
      <point x="382" y="104"/>
      <point x="303" y="104" type="curve" smooth="yes"/>
      <point x="227" y="104"/>
      <point x="204" y="178"/>
      <point x="204" y="347" type="curve" smooth="yes"/>
      <point x="204" y="515"/>
      <point x="226" y="589"/>
      <point x="303" y="589" type="curve" smooth="yes"/>
      <point x="381" y="589"/>
      <point x="402" y="516"/>
      <point x="402" y="347" type="curve" smooth="yes"/>
    </contour>
  </outline>
</glyph>
<glyph name="U" format="1">
  <advance width="600"/>
  <unicode hex="0055"/>
  <outline>
    <contour>
      <point x="392" y="693" type="line"/>
      <point x="392" y="295" type="line" smooth="yes"/>
      <point x="392" y="170"/>
      <point x="379" y="106"/>
      <point x="300" y="106" type="curve" smooth="yes"/>
      <point x="221" y="106"/>
      <point x="208" y="170"/>
      <point x="208" y="295" type="curve" smooth="yes"/>
      <point x="208" y="693" type="line"/>
      <point x="41" y="693" type="line"/>
      <point x="41" y="232" type="line" smooth="yes"/>
      <point x="41" y="84"/>
      <point x="126" y="-17"/>
      <point x="300" y="-17" type="curve" smooth="yes"/>
      <point x="473" y="-17"/>
      <point x="559" y="90"/>
      <point x="559" y="232" type="curve" smooth="yes"/>
      <point x="559" y="693" type="line"/>
    </contour>
    <contour>
      <point x="416" y="0" type="move" name="ogonek"/>
    </contour>
    <contour>
      <point x="300" y="693" type="move" name="top"/>
    </contour>
  </outline>
</glyph>
<glyph name="V" format="1">
  <advance width="600"/>
  <unicode hex="0056"/>
  <outline>
    <contour>
      <point x="175" y="693" type="line"/>
      <point x="-1" y="693" type="line"/>
      <point x="197" y="0" type="line"/>
      <point x="403" y="0" type="line"/>
      <point x="602" y="693" type="line"/>
      <point x="432" y="693" type="line"/>
      <point x="303" y="129" type="line"/>
    </contour>
  </outline>
</glyph>
<glyph name="W" format="1">
  <advance width="600"/>
  <unicode hex="0057"/>
  <outline>
    <contour>
      <point x="459" y="693" type="line"/>
      <point x="429" y="152" type="line"/>
      <point x="425" y="152" type="line"/>
      <point x="373" y="613" type="line"/>
      <point x="231" y="613" type="line"/>
      <point x="175" y="151" type="line"/>
      <point x="171" y="151" type="line"/>
      <point x="152" y="693" type="line"/>
      <point x="-3" y="693" type="line"/>
      <point x="71" y="0" type="line"/>
      <point x="246" y="0" type="line"/>
      <point x="298" y="486" type="line"/>
      <point x="302" y="486" type="line"/>
      <point x="351" y="0" type="line"/>
      <point x="523" y="0" type="line"/>
      <point x="603" y="693" type="line"/>
    </contour>
    <contour>
      <point x="300" y="693" type="move" name="top"/>
    </contour>
  </outline>
</glyph>
<glyph name="X" format="1">
  <advance width="600"/>
  <unicode hex="0058"/>
  <outline>
    <contour>
      <point x="199" y="368" type="line"/>
      <point x="3" y="0" type="line"/>
      <point x="179" y="0" type="line"/>
      <point x="298" y="263" type="line"/>
      <point x="419" y="0" type="line"/>
      <point x="598" y="0" type="line"/>
      <point x="397" y="375" type="line"/>
      <point x="581" y="693" type="line"/>
      <point x="406" y="693" type="line"/>
      <point x="300" y="472" type="line"/>
      <point x="197" y="693" type="line"/>
      <point x="18" y="693" type="line"/>
    </contour>
    <contour>
      <point x="560" y="0" type="move" name="bottomright"/>
    </contour>
  </outline>
</glyph>
<glyph name="bracketright" format="1">
  <advance width="600"/>
  <unicode hex="005D"/>
  <outline>
    <contour>
      <point x="135" y="823" type="line"/>
      <point x="135" y="704" type="line"/>
      <point x="294" y="704" type="line"/>
      <point x="294" y="-4" type="line"/>
      <point x="135" y="-4" type="line"/>
      <point x="135" y="-123" type="line"/>
      <point x="445" y="-123" type="line"/>
      <point x="445" y="823" type="line"/>
    </contour>
  </outline>
</glyph>
<glyph name="underscore" format="1">
  <advance width="600"/>
  <unicode hex="005F"/>
  <outline>
    <contour>
      <point x="572" y="-186" type="line"/>
      <point x="572" y="-61" type="line"/>
      <point x="28" y="-61" type="line"/>
      <point x="28" y="-186" type="line"/>
    </contour>
  </outline>
</glyph>
<glyph name="e" format="1">
  <advance width="600"/>
  <unicode hex="0065"/>
  <outline>
    <contour>
      <point x="552" y="219" type="line"/>
      <point x="554" y="235"/>
      <point x="555" y="258"/>
      <point x="555" y="276" type="curve" smooth="yes"/>
      <point x="555" y="447"/>
      <point x="457" y="549"/>
      <point x="303" y="549" type="curve" smooth="yes"/>
      <point x="137" y="549"/>
      <point x="45" y="422"/>
      <point x="45" y="265" type="curve" smooth="yes"/>
      <point x="45" y="100"/>
      <point x="139" y="-17"/>
      <point x="322" y="-17" type="curve" smooth="yes"/>
      <point x="413" y="-17"/>
      <point x="485" y="13"/>
      <point x="535" y="56" type="curve"/>
      <point x="468" y="147" type="line"/>
      <point x="429" y="116"/>
      <point x="383" y="99"/>
      <point x="335" y="99" type="curve" smooth="yes"/>
      <point x="268" y="99"/>
      <point x="219" y="133"/>
      <point x="208" y="219" type="curve"/>
    </contour>
    <contour>
      <point x="372" y="442"/>
      <point x="398" y="391"/>
      <point x="399" y="315" type="curve"/>
      <point x="206" y="315" type="line"/>
      <point x="213" y="403"/>
      <point x="249" y="442"/>
      <point x="305" y="442" type="curve" smooth="yes"/>
    </contour>
    <contour>
      <point x="446" y="0" type="move" name="ogonek"/>
    </contour>
    <contour>
      <point x="300" y="0" type="move" name="bottom"/>
    </contour>
    <contour>
      <point x="307" y="531" type="move" name="top"/>
    </contour>
  </outline>
</glyph>
<glyph name="g" format="1">
  <advance width="600"/>
  <unicode hex="0067"/>
  <outline>
    <contour>
      <point x="478" y="579"/>
      <point x="410" y="545"/>
      <point x="292" y="548" type="curve" smooth="yes"/>
      <point x="153" y="548"/>
      <point x="54" y="474"/>
      <point x="54" y="354" type="curve" smooth="yes"/>
      <point x="54" y="285"/>
      <point x="81" y="238"/>
      <point x="149" y="202" type="curve"/>
      <point x="111" y="178"/>
      <point x="89" y="140"/>
      <point x="89" y="101" type="curve" smooth="yes"/>
      <point x="89" y="44"/>
      <point x="138" y="-5"/>
      <point x="254" y="-5" type="curve" smooth="yes"/>
      <point x="338" y="-5" type="line" smooth="yes"/>
      <point x="391" y="-5"/>
      <point x="414" y="-26"/>
      <point x="414" y="-57" type="curve" smooth="yes"/>
      <point x="414" y="-91"/>
      <point x="392" y="-117"/>
      <point x="292" y="-117" type="curve" smooth="yes"/>
      <point x="192" y="-117"/>
      <point x="172" y="-97"/>
      <point x="172" y="-51" type="curve"/>
      <point x="30" y="-51" type="line"/>
      <point x="30" y="-156"/>
      <point x="83" y="-222"/>
      <point x="288" y="-222" type="curve" smooth="yes"/>
      <point x="477" y="-222"/>
      <point x="573" y="-155"/>
      <point x="573" y="-46" type="curve" smooth="yes"/>
      <point x="573" y="43"/>
      <point x="494" y="108"/>
      <point x="370" y="108" type="curve" smooth="yes"/>
      <point x="283" y="108" type="line" smooth="yes"/>
      <point x="232" y="108"/>
      <point x="225" y="124"/>
      <point x="225" y="140" type="curve" smooth="yes"/>
      <point x="225" y="152"/>
      <point x="231" y="164"/>
      <point x="242" y="170" type="curve"/>
      <point x="261" y="166"/>
      <point x="281" y="164"/>
      <point x="303" y="164" type="curve" smooth="yes"/>
      <point x="441" y="164"/>
      <point x="529" y="239"/>
      <point x="529" y="342" type="curve" smooth="yes"/>
      <point x="529" y="411"/>
      <point x="493" y="450"/>
      <point x="426" y="479" type="curve"/>
      <point x="493" y="479"/>
      <point x="542" y="485"/>
      <point x="579" y="500" type="curve"/>
      <point x="542" y="617" type="line"/>
    </contour>
    <contour>
      <point x="349" y="444"/>
      <point x="376" y="417"/>
      <point x="376" y="358" type="curve" smooth="yes"/>
      <point x="376" y="297"/>
      <point x="348" y="266"/>
      <point x="296" y="266" type="curve" smooth="yes"/>
      <point x="248" y="266"/>
      <point x="216" y="298"/>
      <point x="216" y="356" type="curve" smooth="yes"/>
      <point x="216" y="411"/>
      <point x="247" y="444"/>
      <point x="296" y="444" type="curve" smooth="yes"/>
    </contour>
    <contour>
      <point x="301" y="531" type="move" name="top"/>
    </contour>
  </outline>
</glyph>
<glyph name="i" format="1">
  <advance width="600"/>
  <unicode hex="0069"/>
  <outline>
    <contour>
      <point x="90" y="531" type="line"/>
      <point x="90" y="422" type="line"/>
      <point x="235" y="422" type="line"/>
      <point x="235" y="109" type="line"/>
      <point x="85" y="109" type="line"/>
      <point x="85" y="0" type="line"/>
      <point x="530" y="0" type="line"/>
      <point x="530" y="109" type="line"/>
      <point x="395" y="109" type="line"/>
      <point x="395" y="531" type="line"/>
    </contour>
    <contour>
      <point x="243" y="810"/>
      <point x="204" y="771"/>
      <point x="204" y="720" type="curve" smooth="yes"/>
      <point x="204" y="669"/>
      <point x="243" y="630"/>
      <point x="299" y="630" type="curve" smooth="yes"/>
      <point x="354" y="630"/>
      <point x="393" y="669"/>
      <point x="393" y="720" type="curve" smooth="yes"/>
      <point x="393" y="771"/>
      <point x="354" y="810"/>
      <point x="299" y="810" type="curve" smooth="yes"/>
    </contour>
  </outline>
</glyph>
<glyph name="k" format="1">
  <advance width="600"/>
  <unicode hex="006B"/>
  <outline>
    <contour>
      <point x="408" y="531" type="line"/>
      <point x="235" y="291" type="line"/>
      <point x="407" y="0" type="line"/>
      <point x="589" y="0" type="line"/>
      <point x="402" y="296" type="line"/>
      <point x="575" y="531" type="line"/>
    </contour>
    <contour>
      <point x="69" y="742" type="line"/>
      <point x="69" y="0" type="line"/>
      <point x="229" y="0" type="line"/>
      <point x="229" y="759" type="line"/>
    </contour>
    <contour>
      <point x="300" y="0" type="move" name="bottom"/>
    </contour>
  </outline>
</glyph>
<glyph name="u" format="1">
  <advance width="600"/>
  <unicode hex="0075"/>
  <outline>
    <contour>
      <point x="69" y="531" type="line"/>
      <point x="69" y="148" type="line" smooth="yes"/>
      <point x="69" y="47"/>
      <point x="118" y="-17"/>
      <point x="221" y="-17" type="curve" smooth="yes"/>
      <point x="285" y="-17"/>
      <point x="348" y="10"/>
      <point x="384" y="62" type="curve"/>
      <point x="391" y="0" type="line"/>
      <point x="531" y="0" type="line"/>
      <point x="531" y="531" type="line"/>
      <point x="371" y="531" type="line"/>
      <point x="371" y="158" type="line"/>
      <point x="349" y="123"/>
      <point x="314" y="101"/>
      <point x="282" y="101" type="curve" smooth="yes"/>
      <point x="249" y="101"/>
      <point x="229" y="117"/>
      <point x="229" y="168" type="curve" smooth="yes"/>
      <point x="229" y="531" type="line"/>
    </contour>
    <contour>
      <point x="541" y="0" type="move" name="ogonek"/>
    </contour>
    <contour>
      <point x="300" y="531" type="move" name="top"/>
    </contour>
  </outline>
</glyph>
<glyph name="v" format="1">
  <advance width="600"/>
  <unicode hex="0076"/>
  <outline>
    <contour>
      <point x="410" y="531" type="line"/>
      <point x="303" y="122" type="line"/>
      <point x="201" y="531" type="line"/>
      <point x="28" y="531" type="line"/>
      <point x="207" y="0" type="line"/>
      <point x="395" y="0" type="line"/>
      <point x="572" y="531" type="line"/>
    </contour>
  </outline>
</glyph>
<glyph name="w" format="1">
  <advance width="600"/>
  <unicode hex="0077"/>
  <outline>
    <contour>
      <point x="597" y="531" type="line"/>
      <point x="456" y="531" type="line"/>
      <point x="423" y="119" type="line"/>
      <point x="419" y="119" type="line"/>
      <point x="372" y="464" type="line"/>
      <point x="238" y="464" type="line"/>
      <point x="184" y="117" type="line"/>
      <point x="180" y="117" type="line"/>
      <point x="149" y="531" type="line"/>
      <point x="3" y="531" type="line"/>
      <point x="81" y="0" type="line"/>
      <point x="254" y="0" type="line"/>
      <point x="299" y="338" type="line"/>
      <point x="303" y="338" type="line"/>
      <point x="346" y="0" type="line"/>
      <point x="522" y="0" type="line"/>
    </contour>
    <contour>
      <point x="300" y="531" type="move" name="top"/>
    </contour>
  </outline>
</glyph>
<glyph name="x" format="1">
  <advance width="600"/>
  <unicode hex="0078"/>
  <outline>
    <contour>
      <point x="294" y="198" type="line"/>
      <point x="398" y="0" type="line"/>
      <point x="579" y="0" type="line"/>
      <point x="396" y="285" type="line"/>
      <point x="552" y="531" type="line"/>
      <point x="382" y="531" type="line"/>
      <point x="301" y="362" type="line"/>
      <point x="217" y="531" type="line"/>
      <point x="38" y="531" type="line"/>
      <point x="203" y="279" type="line"/>
      <point x="21" y="0" type="line"/>
      <point x="194" y="0" type="line"/>
    </contour>
    <contour>
      <point x="519" y="0" type="move" name="bottomright"/>
    </contour>
  </outline>
</glyph>
<glyph name="braceright" format="1">
  <advance width="600"/>
  <unicode hex="007D"/>
  <outline>
    <contour>
      <point x="133" y="729" type="line"/>
      <point x="194" y="729"/>
      <point x="223" y="716"/>
      <point x="223" y="666" type="curve" smooth="yes"/>
      <point x="223" y="520" type="line" smooth="yes"/>
      <point x="223" y="407"/>
      <point x="267" y="365"/>
      <point x="367" y="349" type="curve"/>
      <point x="265" y="335"/>
      <point x="223" y="296"/>
      <point x="223" y="180" type="curve" smooth="yes"/>
      <point x="223" y="34" type="line" smooth="yes"/>
      <point x="223" y="-16"/>
      <point x="193" y="-29"/>
      <point x="133" y="-29" type="curve"/>
      <point x="133" y="-140" type="line"/>
      <point x="319" y="-140"/>
      <point x="373" y="-90"/>
      <point x="373" y="45" type="curve" smooth="yes"/>
      <point x="373" y="187" type="line" smooth="yes"/>
      <point x="373" y="263"/>
      <point x="404" y="285"/>
      <point x="467" y="285" type="curve"/>
      <point x="467" y="415" type="line"/>
      <point x="403" y="415"/>
      <point x="373" y="437"/>
      <point x="373" y="513" type="curve" smooth="yes"/>
      <point x="373" y="654" type="line" smooth="yes"/>
      <point x="373" y="791"/>
      <point x="319" y="840"/>
      <point x="133" y="840" type="curve"/>
    </contour>
  </outline>
</glyph>
<glyph name="asciitilde" format="1">
  <advance width="600"/>
  <unicode hex="007E"/>
  <outline>
    <contour>
      <point x="113" y="431"/>
      <point x="62" y="356"/>
      <point x="21" y="272" type="curve"/>
      <point x="110" y="232" type="line"/>
      <point x="136" y="280"/>
      <point x="160" y="310"/>
      <point x="199" y="310" type="curve" smooth="yes"/>
      <point x="259" y="310"/>
      <point x="301" y="210"/>
      <point x="397" y="210" type="curve" smooth="yes"/>
      <point x="486" y="210"/>
      <point x="536" y="275"/>
      <point x="579" y="369" type="curve"/>
      <point x="490" y="409" type="line"/>
      <point x="463" y="358"/>
      <point x="439" y="331"/>
      <point x="401" y="331" type="curve" smooth="yes"/>
      <point x="341" y="331"/>
      <point x="301" y="431"/>
      <point x="203" y="431" type="curve" smooth="yes"/>
    </contour>
  </outline>
</glyph>
<glyph name="currency" format="1">
  <advance width="600"/>
  <unicode hex="00A4"/>
  <outline>
    <contour>
      <point x="31" y="541" type="line"/>
      <point x="110" y="461" type="line"/>
      <point x="90" y="428"/>
      <point x="80" y="387"/>
      <point x="80" y="342" type="curve" smooth="yes"/>
      <point x="80" y="295"/>
      <point x="91" y="255"/>
      <point x="111" y="223" type="curve"/>
      <point x="31" y="142" type="line"/>
      <point x="102" y="71" type="line"/>
      <point x="182" y="151" type="line"/>
      <point x="216" y="132"/>
      <point x="257" y="123"/>
      <point x="301" y="123" type="curve" smooth="yes"/>
      <point x="344" y="123"/>
      <point x="385" y="132"/>
      <point x="418" y="151" type="curve"/>
      <point x="498" y="73" type="line"/>
      <point x="569" y="143" type="line"/>
      <point x="490" y="222" type="line"/>
      <point x="510" y="254"/>
      <point x="523" y="295"/>
      <point x="523" y="342" type="curve" smooth="yes"/>
      <point x="523" y="388"/>
      <point x="511" y="428"/>
      <point x="491" y="461" type="curve"/>
      <point x="569" y="540" type="line"/>
      <point x="498" y="611" type="line"/>
      <point x="418" y="531" type="line"/>
      <point x="384" y="551"/>
      <point x="344" y="560"/>
      <point x="301" y="560" type="curve" smooth="yes"/>
      <point x="256" y="560"/>
      <point x="216" y="551"/>
      <point x="183" y="531" type="curve"/>
      <point x="102" y="612" type="line"/>
    </contour>
    <contour>
      <point x="365" y="452"/>
      <point x="397" y="411"/>
      <point x="397" y="342" type="curve" smooth="yes"/>
      <point x="397" y="272"/>
      <point x="365" y="231"/>
      <point x="301" y="231" type="curve" smooth="yes"/>
      <point x="236" y="231"/>
      <point x="203" y="272"/>
      <point x="203" y="342" type="curve" smooth="yes"/>
      <point x="203" y="411"/>
      <point x="236" y="452"/>
      <point x="301" y="452" type="curve" smooth="yes"/>
    </contour>
  </outline>
</glyph>
<glyph name="softhyphen" format="1">
  <advance width="600"/>
  <unicode hex="00AD"/>
  <outline>
    <contour>
      <point x="465" y="251" type="line"/>
      <point x="465" y="375" type="line"/>
      <point x="135" y="375" type="line"/>
      <point x="135" y="251" type="line"/>
    </contour>
  </outline>
</glyph>
<glyph name="acute" format="1">
  <advance width="600"/>
  <unicode hex="00B4"/>
  <outline>
    <contour>
      <point x="205" y="608" type="line"/>
      <point x="443" y="714" type="line"/>
      <point x="372" y="833" type="line"/>
      <point x="157" y="689" type="line"/>
    </contour>
    <contour>
      <point x="300" y="531" type="move" name="_top"/>
    </contour>
  </outline>
</glyph>
<glyph name="uni00B5" format="1">
  <advance width="600"/>
  <unicode hex="00B5"/>
  <outline>
    <contour>
      <point x="365" y="531" type="line"/>
      <point x="365" y="159" type="line"/>
      <point x="343" y="125"/>
      <point x="313" y="103"/>
      <point x="279" y="103" type="curve" smooth="yes"/>
      <point x="228" y="103"/>
      <point x="225" y="145"/>
      <point x="225" y="229" type="curve" smooth="yes"/>
      <point x="225" y="531" type="line"/>
      <point x="66" y="531" type="line"/>
      <point x="66" y="-221" type="line"/>
      <point x="217" y="-205" type="line"/>
      <point x="217" y="-117" type="line" smooth="yes"/>
      <point x="217" y="-51"/>
      <point x="204" y="-15"/>
      <point x="180" y="33" type="curve"/>
      <point x="209" y="-4"/>
      <point x="229" y="-15"/>
      <point x="266" y="-15" type="curve" smooth="yes"/>
      <point x="313" y="-15"/>
      <point x="351" y="16"/>
      <point x="380" y="63" type="curve"/>
      <point x="383" y="32"/>
      <point x="388" y="5"/>
      <point x="393" y="-14" type="curve"/>
      <point x="537" y="0" type="line"/>
      <point x="530" y="58"/>
      <point x="525" y="121"/>
      <point x="525" y="189" type="curve" smooth="yes"/>
      <point x="525" y="531" type="line"/>
    </contour>
  </outline>
</glyph>
<glyph name="paragraph" format="1">
  <advance width="600"/>
  <unicode hex="00B6"/>
  <outline>
    <contour>
      <point x="270" y="693" type="line" smooth="yes"/>
      <point x="103" y="693"/>
      <point x="18" y="603"/>
      <point x="18" y="478" type="curve" smooth="yes"/>
      <point x="18" y="355"/>
      <point x="90" y="277"/>
      <point x="232" y="264" type="curve"/>
      <point x="232" y="-221" type="line"/>
      <point x="366" y="-210" type="line"/>
      <point x="366" y="585" type="line"/>
      <point x="448" y="585" type="line"/>
      <point x="448" y="-221" type="line"/>
      <point x="582" y="-210" type="line"/>
      <point x="582" y="693" type="line"/>
    </contour>
  </outline>
</glyph>
<glyph name="AE" format="1">
  <advance width="600"/>
  <unicode hex="00C6"/>
  <outline>
    <contour>
      <point x="337" y="0" type="line"/>
      <point x="603" y="0" type="line"/>
      <point x="603" y="112" type="line"/>
      <point x="455" y="112" type="line"/>
      <point x="420" y="295" type="line"/>
      <point x="556" y="295" type="line"/>
      <point x="556" y="407" type="line"/>
      <point x="400" y="407" type="line"/>
      <point x="367" y="581" type="line"/>
      <point x="548" y="581" type="line"/>
      <point x="565" y="693" type="line"/>
      <point x="162" y="693" type="line"/>
      <point x="-12" y="0" type="line"/>
      <point x="147" y="0" type="line"/>
      <point x="174" y="152" type="line"/>
      <point x="313" y="152" type="line"/>
    </contour>
    <contour>
      <point x="245" y="582" type="line"/>
      <point x="296" y="265" type="line"/>
      <point x="192" y="265" type="line"/>
    </contour>
    <contour>
      <point x="350" y="693" type="move" name="top"/>
    </contour>
  </outline>
</glyph>
<glyph name="Oslash" format="1">
  <advance width="600"/>
  <unicode hex="00D8"/>
  <outline>
    <contour>
      <point x="118" y="711"/>
      <point x="22" y="567"/>
      <point x="22" y="347" type="curve" smooth="yes"/>
      <point x="22" y="122"/>
      <point x="128" y="-17"/>
      <point x="300" y="-17" type="curve" smooth="yes"/>
      <point x="482" y="-17"/>
      <point x="578" y="127"/>
      <point x="578" y="347" type="curve" smooth="yes"/>
      <point x="578" y="572"/>
      <point x="472" y="711"/>
      <point x="300" y="711" type="curve" smooth="yes"/>
    </contour>
    <contour>
      <point x="347" y="693" type="line"/>
      <point x="340" y="617" type="line"/>
      <point x="207" y="164" type="line"/>
      <point x="151" y="63" type="line"/>
      <point x="108" y="-76" type="line"/>
      <point x="220" y="-109" type="line"/>
      <point x="253" y="4" type="line"/>
      <point x="270" y="103" type="line"/>
      <point x="398" y="542" type="line"/>
      <point x="454" y="650" type="line"/>
      <point x="492" y="770" type="line"/>
      <point x="380" y="803" type="line"/>
    </contour>
    <contour>
      <point x="383" y="593"/>
      <point x="414" y="520"/>
      <point x="414" y="347" type="curve" smooth="yes"/>
      <point x="414" y="176"/>
      <point x="383" y="101"/>
      <point x="300" y="101" type="curve" smooth="yes"/>
      <point x="218" y="101"/>
      <point x="186" y="174"/>
      <point x="186" y="347" type="curve" smooth="yes"/>
      <point x="186" y="520"/>
      <point x="219" y="593"/>
      <point x="300" y="593" type="curve" smooth="yes"/>
    </contour>
    <contour>
      <point x="300" y="693" type="move" name="top"/>
    </contour>
  </outline>
</glyph>
<glyph name="ae" format="1">
  <advance width="600"/>
  <unicode hex="00E6"/>
  <outline>
    <contour>
      <point x="368" y="549"/>
      <point x="326" y="521"/>
      <point x="302" y="479" type="curve"/>
      <point x="277" y="521"/>
      <point x="237" y="549"/>
      <point x="164" y="549" type="curve" smooth="yes"/>
      <point x="111" y="549"/>
      <point x="71" y="536"/>
      <point x="19" y="513" type="curve"/>
      <point x="55" y="426" type="line"/>
      <point x="95" y="445"/>
      <point x="116" y="451"/>
      <point x="148" y="451" type="curve" smooth="yes"/>
      <point x="205" y="451"/>
      <point x="237" y="418"/>
      <point x="237" y="350" type="curve" smooth="yes"/>
      <point x="237" y="327" type="line"/>
      <point x="196" y="327" type="line" smooth="yes"/>
      <point x="59" y="327"/>
      <point x="-6" y="265"/>
      <point x="-6" y="152" type="curve" smooth="yes"/>
      <point x="-6" y="53"/>
      <point x="50" y="-17"/>
      <point x="143" y="-17" type="curve" smooth="yes"/>
      <point x="211" y="-17"/>
      <point x="246" y="10"/>
      <point x="284" y="67" type="curve"/>
      <point x="318" y="14"/>
      <point x="370" y="-17"/>
      <point x="444" y="-17" type="curve" smooth="yes"/>
      <point x="511" y="-17"/>
      <point x="561" y="7"/>
      <point x="600" y="40" type="curve"/>
      <point x="540" y="120" type="line"/>
      <point x="511" y="99"/>
      <point x="485" y="88"/>
      <point x="453" y="88" type="curve" smooth="yes"/>
      <point x="397" y="88"/>
      <point x="366" y="132"/>
      <point x="357" y="226" type="curve"/>
      <point x="597" y="226" type="line"/>
      <point x="599" y="242"/>
      <point x="600" y="258"/>
      <point x="600" y="276" type="curve" smooth="yes"/>
      <point x="600" y="452"/>
      <point x="553" y="549"/>
      <point x="428" y="549" type="curve" smooth="yes"/>
    </contour>
    <contour>
      <point x="237" y="211"/>
      <point x="238" y="178"/>
      <point x="241" y="148" type="curve"/>
      <point x="221" y="108"/>
      <point x="200" y="87"/>
      <point x="172" y="87" type="curve" smooth="yes"/>
      <point x="143" y="87"/>
      <point x="127" y="114"/>
      <point x="127" y="159" type="curve" smooth="yes"/>
      <point x="127" y="211"/>
      <point x="151" y="241"/>
      <point x="216" y="241" type="curve" smooth="yes"/>
      <point x="237" y="241" type="line"/>
    </contour>
    <contour>
      <point x="468" y="449"/>
      <point x="479" y="406"/>
      <point x="480" y="312" type="curve"/>
      <point x="357" y="312" type="line"/>
      <point x="361" y="416"/>
      <point x="381" y="449"/>
      <point x="422" y="449" type="curve" smooth="yes"/>
    </contour>
    <contour>
      <point x="302" y="531" type="move" name="top"/>
    </contour>
  </outline>
</glyph>
<glyph name="eth" format="1">
  <advance width="600"/>
  <unicode hex="00F0"/>
  <outline>
    <contour>
      <point x="226" y="525" type="line"/>
      <point x="281" y="581" type="line"/>
      <point x="328" y="547"/>
      <point x="364" y="500"/>
      <point x="387" y="432" type="curve"/>
      <point x="351" y="465"/>
      <point x="313" y="482"/>
      <point x="254" y="482" type="curve" smooth="yes"/>
      <point x="139" y="482"/>
      <point x="39" y="382"/>
      <point x="39" y="234" type="curve" smooth="yes"/>
      <point x="39" y="75"/>
      <point x="150" y="-17"/>
      <point x="294" y="-17" type="curve" smooth="yes"/>
      <point x="464" y="-17"/>
      <point x="557" y="113"/>
      <point x="557" y="277" type="curve" smooth="yes"/>
      <point x="557" y="456"/>
      <point x="501" y="590"/>
      <point x="371" y="673" type="curve"/>
      <point x="424" y="727" type="line"/>
      <point x="342" y="798" type="line"/>
      <point x="269" y="722" type="line"/>
      <point x="227" y="738"/>
      <point x="178" y="750"/>
      <point x="123" y="758" type="curve"/>
      <point x="92" y="654" type="line"/>
      <point x="125" y="648"/>
      <point x="155" y="640"/>
      <point x="182" y="631" type="curve"/>
      <point x="125" y="571" type="line"/>
    </contour>
    <contour>
      <point x="395" y="150"/>
      <point x="365" y="99"/>
      <point x="297" y="99" type="curve" smooth="yes"/>
      <point x="239" y="99"/>
      <point x="202" y="139"/>
      <point x="202" y="236" type="curve" smooth="yes"/>
      <point x="202" y="327"/>
      <point x="239" y="370"/>
      <point x="296" y="370" type="curve" smooth="yes"/>
      <point x="335" y="370"/>
      <point x="369" y="355"/>
      <point x="394" y="328" type="curve"/>
      <point x="395" y="305"/>
      <point x="395" y="281"/>
      <point x="395" y="256" type="curve" smooth="yes"/>
    </contour>
  </outline>
</glyph>
<glyph name="dcroat" format="1">
  <advance width="600"/>
  <unicode hex="0111"/>
  <outline>
    <contour>
      <point x="231" y="686" type="line"/>
      <point x="231" y="593" type="line"/>
      <point x="352" y="593" type="line"/>
      <point x="592" y="593" type="line"/>
      <point x="592" y="686" type="line"/>
      <point x="512" y="686" type="line"/>
    </contour>
    <component base="d" xOffset="-19"/>
  </outline>
</glyph>
<glyph name="Hbar" format="1">
  <advance width="600"/>
  <unicode hex="0126"/>
  <outline>
    <contour>
      <point x="378" y="693" type="line"/>
      <point x="378" y="425" type="line"/>
      <point x="222" y="425" type="line"/>
      <point x="222" y="693" type="line"/>
      <point x="56" y="693" type="line"/>
      <point x="56" y="0" type="line"/>
      <point x="222" y="0" type="line"/>
      <point x="222" y="296" type="line"/>
      <point x="378" y="296" type="line"/>
      <point x="378" y="0" type="line"/>
      <point x="544" y="0" type="line"/>
      <point x="544" y="693" type="line"/>
    </contour>
    <contour>
      <point x="544" y="592" type="line"/>
      <point x="56" y="592" type="line"/>
      <point x="2" y="592" type="line"/>
      <point x="2" y="500" type="line"/>
      <point x="598" y="500" type="line"/>
      <point x="598" y="592" type="line"/>
    </contour>
    <contour>
      <point x="300" y="347" type="move" name="center"/>
    </contour>
    <contour>
      <point x="300" y="693" type="move" name="top"/>
    </contour>
  </outline>
</glyph>
<glyph name="Lslash" format="1">
  <advance width="600"/>
  <unicode hex="0141"/>
  <outline>
    <contour>
      <point x="451" y="442" type="line"/>
      <point x="396" y="528" type="line"/>
      <point x="107" y="349" type="line"/>
      <point x="8" y="288" type="line"/>
      <point x="62" y="200" type="line"/>
    </contour>
    <component base="L" xOffset="15"/>
  </outline>
</glyph>
<glyph name="Eng" format="1">
  <advance width="600"/>
  <unicode hex="014A"/>
  <outline>
    <contour>
      <point x="549" y="693" type="line"/>
      <point x="408" y="693" type="line"/>
      <point x="408" y="430" type="line" smooth="yes"/>
      <point x="408" y="305"/>
      <point x="422" y="204"/>
      <point x="433" y="154" type="curve"/>
      <point x="429" y="154" type="line"/>
      <point x="258" y="693" type="line"/>
      <point x="51" y="693" type="line"/>
      <point x="51" y="0" type="line"/>
      <point x="192" y="0" type="line"/>
      <point x="192" y="259" type="line" smooth="yes"/>
      <point x="192" y="381"/>
      <point x="176" y="496"/>
      <point x="167" y="538" type="curve"/>
      <point x="171" y="538" type="line"/>
      <point x="348" y="0" type="line"/>
      <point x="406" y="0" type="line"/>
      <point x="399" y="-56"/>
      <point x="370" y="-84"/>
      <point x="291" y="-116" type="curve"/>
      <point x="326" y="-222" type="line"/>
      <point x="443" y="-183"/>
      <point x="549" y="-118"/>
      <point x="549" y="47" type="curve"/>
    </contour>
  </outline>
</glyph>
<glyph name="OE" format="1">
  <advance width="600"/>
  <unicode hex="0152"/>
  <outline>
    <contour>
      <point x="72" y="711"/>
      <point x="10" y="574"/>
      <point x="10" y="347" type="curve" smooth="yes"/>
      <point x="10" y="115"/>
      <point x="72" y="-17"/>
      <point x="225" y="-17" type="curve" smooth="yes"/>
      <point x="262" y="-17"/>
      <point x="288" y="-9"/>
      <point x="317" y="0" type="curve"/>
      <point x="596" y="0" type="line"/>
      <point x="596" y="112" type="line"/>
      <point x="394" y="112" type="line"/>
      <point x="418" y="157"/>
      <point x="434" y="218"/>
      <point x="438" y="295" type="curve"/>
      <point x="558" y="295" type="line"/>
      <point x="558" y="407" type="line"/>
      <point x="437" y="407" type="line"/>
      <point x="433" y="481"/>
      <point x="420" y="539"/>
      <point x="399" y="581" type="curve"/>
      <point x="579" y="581" type="line"/>
      <point x="596" y="693" type="line"/>
      <point x="321" y="693" type="line"/>
      <point x="288" y="704"/>
      <point x="262" y="711"/>
      <point x="225" y="711" type="curve" smooth="yes"/>
    </contour>
    <contour>
      <point x="286" y="598"/>
      <point x="303" y="534"/>
      <point x="303" y="347" type="curve" smooth="yes"/>
      <point x="303" y="165"/>
      <point x="283" y="95"/>
      <point x="226" y="95" type="curve" smooth="yes"/>
      <point x="171" y="95"/>
      <point x="151" y="165"/>
      <point x="151" y="347" type="curve" smooth="yes"/>
      <point x="151" y="529"/>
      <point x="167" y="598"/>
      <point x="226" y="598" type="curve" smooth="yes"/>
    </contour>
  </outline>
</glyph>
<glyph name="tbar" format="1">
  <advance width="600"/>
  <unicode hex="0167"/>
  <outline>
    <contour>
      <point x="168" y="361" type="line"/>
      <point x="69" y="361" type="line"/>
      <point x="69" y="261" type="line"/>
      <point x="328" y="261" type="line"/>
      <point x="482" y="261" type="line"/>
      <point x="482" y="361" type="line"/>
    </contour>
    <component base="t"/>
  </outline>
</glyph>
<glyph name="dotlessj" format="1">
  <advance width="600"/>
  <unicode hex="0237"/>
  <outline>
    <contour>
      <point x="123" y="531" type="line"/>
      <point x="123" y="422" type="line"/>
      <point x="313" y="422" type="line"/>
      <point x="313" y="146" type="line" smooth="yes"/>
      <point x="313" y="-9"/>
      <point x="230" y="-63"/>
      <point x="69" y="-100" type="curve"/>
      <point x="94" y="-222" type="line"/>
      <point x="343" y="-173"/>
      <point x="473" y="-76"/>
      <point x="473" y="156" type="curve" smooth="yes"/>
      <point x="473" y="531" type="line"/>
    </contour>
    <contour>
      <point x="370" y="531" type="move" name="top"/>
    </contour>
  </outline>
</glyph>
<glyph name="firsttonechinese" format="1">
  <advance width="600"/>
  <unicode hex="02C9"/>
  <outline>
    <contour>
      <point x="453" y="782" type="line"/>
      <point x="146" y="782" type="line"/>
      <point x="146" y="671" type="line"/>
      <point x="453" y="671" type="line"/>
    </contour>
  </outline>
</glyph>
<glyph name="tilde" format="1">
  <advance width="600"/>
  <unicode hex="02DC"/>
  <outline>
    <contour>
      <point x="420" y="632"/>
      <point x="464" y="688"/>
      <point x="488" y="751" type="curve"/>
      <point x="408" y="789" type="line"/>
      <point x="392" y="761"/>
      <point x="380" y="746"/>
      <point x="356" y="746" type="curve" smooth="yes"/>
      <point x="325" y="746"/>
      <point x="308" y="790"/>
      <point x="243" y="790" type="curve" smooth="yes"/>
      <point x="180" y="790"/>
      <point x="135" y="735"/>
      <point x="112" y="672" type="curve"/>
      <point x="192" y="634" type="line"/>
      <point x="208" y="662"/>
      <point x="220" y="677"/>
      <point x="243" y="677" type="curve" smooth="yes"/>
      <point x="274" y="677"/>
      <point x="293" y="632"/>
      <point x="356" y="632" type="curve" smooth="yes"/>
    </contour>
    <contour>
      <point x="300" y="531" type="move" name="_top"/>
    </contour>
  </outline>
</glyph>
<glyph name="uni0304" format="1">
  <advance width="600"/>
  <unicode hex="0304"/>
  <outline>
    <component base="macron" yOffset="-37"/>
    <contour>
      <point x="300" y="531" type="move" name="_top"/>
    </contour>
  </outline>
</glyph>
<glyph name="uni0306" format="1">
  <advance width="600"/>
  <unicode hex="0306"/>
  <outline>
    <contour>
      <point x="411" y="589"/>
      <point x="464" y="658"/>
      <point x="473" y="744" type="curve"/>
      <point x="385" y="760" type="line"/>
      <point x="372" y="718"/>
      <point x="346" y="700"/>
      <point x="300" y="700" type="curve" smooth="yes"/>
      <point x="254" y="700"/>
      <point x="228" y="718"/>
      <point x="215" y="760" type="curve"/>
      <point x="127" y="744" type="line"/>
      <point x="137" y="658"/>
      <point x="189" y="589"/>
      <point x="300" y="589" type="curve" smooth="yes"/>
    </contour>
    <contour>
      <point x="300" y="531" type="move" name="_top"/>
    </contour>
  </outline>
</glyph>
<glyph name="strokelongoverlay" format="1">
  <advance width="600"/>
  <unicode hex="0336"/>
  <outline>
    <contour>
      <point x="634" y="376" type="line"/>
      <point x="-34" y="376" type="line"/>
      <point x="-34" y="282" type="line"/>
      <point x="634" y="282" type="line"/>
    </contour>
  </outline>
</glyph>
<glyph name="dieresistonos" format="1">
  <advance width="600"/>
  <unicode hex="0385"/>
  <outline>
    <contour>
      <point x="253" y="750" type="line"/>
      <point x="343" y="736" type="line"/>
      <point x="416" y="927" type="line"/>
      <point x="282" y="950" type="line"/>
    </contour>
    <contour>
      <point x="122" y="763"/>
      <point x="86" y="729"/>
      <point x="86" y="686" type="curve" smooth="yes"/>
      <point x="86" y="642"/>
      <point x="122" y="608"/>
      <point x="167" y="608" type="curve" smooth="yes"/>
      <point x="211" y="608"/>
      <point x="246" y="642"/>
      <point x="246" y="686" type="curve" smooth="yes"/>
      <point x="246" y="729"/>
      <point x="211" y="763"/>
      <point x="167" y="763" type="curve" smooth="yes"/>
    </contour>
    <contour>
      <point x="390" y="763"/>
      <point x="355" y="729"/>
      <point x="355" y="686" type="curve" smooth="yes"/>
      <point x="355" y="642"/>
      <point x="390" y="608"/>
      <point x="434" y="608" type="curve" smooth="yes"/>
      <point x="480" y="608"/>
      <point x="514" y="642"/>
      <point x="514" y="686" type="curve" smooth="yes"/>
      <point x="514" y="729"/>
      <point x="480" y="763"/>
      <point x="434" y="763" type="curve" smooth="yes"/>
    </contour>
  </outline>
</glyph>
<glyph name="beta" format="1">
  <advance width="600"/>
  <unicode hex="03B2"/>
  <outline>
    <contour>
      <point x="151" y="764"/>
      <point x="52" y="687"/>
      <point x="52" y="549" type="curve" smooth="yes"/>
      <point x="52" y="-227" type="line"/>
      <point x="213" y="-200" type="line"/>
      <point x="213" y="558" type="line" smooth="yes"/>
      <point x="213" y="618"/>
      <point x="240" y="646"/>
      <point x="284" y="646" type="curve" smooth="yes"/>
      <point x="327" y="646"/>
      <point x="351" y="614"/>
      <point x="351" y="552" type="curve" smooth="yes"/>
      <point x="351" y="486"/>
      <point x="324" y="452"/>
      <point x="284" y="452" type="curve" smooth="yes"/>
      <point x="265" y="452" type="line"/>
      <point x="255" y="338" type="line"/>
      <point x="287" y="338" type="line" smooth="yes"/>
      <point x="352" y="338"/>
      <point x="402" y="301"/>
      <point x="402" y="220" type="curve" smooth="yes"/>
      <point x="402" y="134"/>
      <point x="356" y="99"/>
      <point x="299" y="99" type="curve" smooth="yes"/>
      <point x="250" y="99"/>
      <point x="215" y="119"/>
      <point x="177" y="148" type="curve"/>
      <point x="140" y="85" type="line"/>
      <point x="199" y="19"/>
      <point x="268" y="-20"/>
      <point x="343" y="-20" type="curve" smooth="yes"/>
      <point x="483" y="-20"/>
      <point x="567" y="75"/>
      <point x="567" y="210" type="curve" smooth="yes"/>
      <point x="567" y="361"/>
      <point x="460" y="398"/>
      <point x="381" y="406" type="curve"/>
      <point x="472" y="429"/>
      <point x="514" y="482"/>
      <point x="514" y="567" type="curve" smooth="yes"/>
      <point x="514" y="677"/>
      <point x="428" y="764"/>
      <point x="284" y="764" type="curve" smooth="yes"/>
    </contour>
  </outline>
</glyph>
<glyph name="delta" format="1">
  <advance width="600"/>
  <unicode hex="03B4"/>
  <outline>
    <contour>
      <point x="171" y="759"/>
      <point x="98" y="694"/>
      <point x="98" y="605" type="curve" smooth="yes"/>
      <point x="98" y="542"/>
      <point x="120" y="505"/>
      <point x="196" y="465" type="curve"/>
      <point x="97" y="421"/>
      <point x="42" y="344"/>
      <point x="42" y="242" type="curve" smooth="yes"/>
      <point x="42" y="87"/>
      <point x="138" y="-17"/>
      <point x="301" y="-17" type="curve" smooth="yes"/>
      <point x="459" y="-17"/>
      <point x="560" y="88"/>
      <point x="560" y="248" type="curve" smooth="yes"/>
      <point x="560" y="396"/>
      <point x="496" y="466"/>
      <point x="350" y="525" type="curve" smooth="yes"/>
      <point x="273" y="556"/>
      <point x="258" y="571"/>
      <point x="258" y="602" type="curve" smooth="yes"/>
      <point x="258" y="627"/>
      <point x="279" y="645"/>
      <point x="325" y="645" type="curve" smooth="yes"/>
      <point x="366" y="645"/>
      <point x="400" y="634"/>
      <point x="435" y="609" type="curve"/>
      <point x="511" y="696" type="line"/>
      <point x="466" y="732"/>
      <point x="401" y="759"/>
      <point x="319" y="759" type="curve" smooth="yes"/>
    </contour>
    <contour>
      <point x="372" y="385"/>
      <point x="395" y="348"/>
      <point x="395" y="249" type="curve" smooth="yes"/>
      <point x="395" y="146"/>
      <point x="362" y="100"/>
      <point x="300" y="100" type="curve" smooth="yes"/>
      <point x="238" y="100"/>
      <point x="206" y="149"/>
      <point x="206" y="249" type="curve" smooth="yes"/>
      <point x="206" y="325"/>
      <point x="222" y="379"/>
      <point x="284" y="425" type="curve"/>
    </contour>
  </outline>
</glyph>
<glyph name="zeta" format="1">
  <advance width="600"/>
  <unicode hex="03B6"/>
  <outline>
    <contour>
      <point x="145" y="742" type="line"/>
      <point x="127" y="626" type="line"/>
      <point x="231" y="626" type="line" smooth="yes"/>
      <point x="319" y="626"/>
      <point x="386" y="627"/>
      <point x="414" y="640" type="curve"/>
      <point x="182" y="510"/>
      <point x="94" y="388"/>
      <point x="94" y="253" type="curve" smooth="yes"/>
      <point x="94" y="109"/>
      <point x="169" y="62"/>
      <point x="327" y="2" type="curve" smooth="yes"/>
      <point x="379" y="-17"/>
      <point x="394" y="-26"/>
      <point x="394" y="-47" type="curve" smooth="yes"/>
      <point x="394" y="-83"/>
      <point x="363" y="-104"/>
      <point x="317" y="-130" type="curve"/>
      <point x="375" y="-226" type="line"/>
      <point x="499" y="-173"/>
      <point x="558" y="-113"/>
      <point x="558" y="-28" type="curve" smooth="yes"/>
      <point x="558" y="44"/>
      <point x="517" y="71"/>
      <point x="390" y="120" type="curve" smooth="yes"/>
      <point x="289" y="158"/>
      <point x="260" y="183"/>
      <point x="260" y="259" type="curve" smooth="yes"/>
      <point x="260" y="370"/>
      <point x="348" y="491"/>
      <point x="566" y="646" type="curve"/>
      <point x="549" y="742" type="line"/>
    </contour>
  </outline>
</glyph>
<glyph name="kappa" format="1">
  <advance width="600"/>
  <unicode hex="03BA"/>
  <outline>
    <contour>
      <point x="237" y="278" type="line"/>
      <point x="369" y="94" type="line"/>
      <point x="419" y="17"/>
      <point x="456" y="-11"/>
      <point x="529" y="-18" type="curve"/>
      <point x="583" y="108" type="line"/>
      <point x="555" y="114"/>
      <point x="534" y="124"/>
      <point x="509" y="155" type="curve" smooth="yes"/>
      <point x="400" y="287" type="line"/>
      <point x="561" y="489" type="line"/>
      <point x="430" y="547" type="line"/>
    </contour>
    <contour>
      <point x="51" y="531" type="line"/>
      <point x="68" y="469"/>
      <point x="73" y="407"/>
      <point x="73" y="348" type="curve" smooth="yes"/>
      <point x="73" y="0" type="line"/>
      <point x="233" y="0" type="line"/>
      <point x="233" y="337" type="line" smooth="yes"/>
      <point x="233" y="416"/>
      <point x="219" y="488"/>
      <point x="205" y="531" type="curve"/>
    </contour>
  </outline>
</glyph>
<glyph name="nu" format="1">
  <advance width="600"/>
  <unicode hex="03BD"/>
  <outline>
    <contour>
      <point x="384" y="0" type="line"/>
      <point x="576" y="514" type="line"/>
      <point x="422" y="549" type="line"/>
      <point x="300" y="120" type="line"/>
      <point x="272" y="327"/>
      <point x="222" y="476"/>
      <point x="161" y="548" type="curve"/>
      <point x="15" y="498" type="line"/>
      <point x="94" y="422"/>
      <point x="161" y="213"/>
      <point x="203" y="0" type="curve"/>
    </contour>
  </outline>
</glyph>
<glyph name="xi" format="1">
  <advance width="600"/>
  <unicode hex="03BE"/>
  <outline>
    <contour>
      <point x="227" y="759"/>
      <point x="113" y="693"/>
      <point x="113" y="590" type="curve" smooth="yes"/>
      <point x="113" y="511"/>
      <point x="170" y="469"/>
      <point x="247" y="444" type="curve"/>
      <point x="157" y="427"/>
      <point x="74" y="373"/>
      <point x="74" y="262" type="curve" smooth="yes"/>
      <point x="74" y="119"/>
      <point x="162" y="81"/>
      <point x="335" y="12" type="curve" smooth="yes"/>
      <point x="380" y="-6"/>
      <point x="395" y="-16"/>
      <point x="395" y="-41" type="curve" smooth="yes"/>
      <point x="395" y="-84"/>
      <point x="351" y="-113"/>
      <point x="320" y="-130" type="curve"/>
      <point x="378" y="-226" type="line"/>
      <point x="501" y="-173"/>
      <point x="561" y="-113"/>
      <point x="561" y="-29" type="curve" smooth="yes"/>
      <point x="561" y="56"/>
      <point x="510" y="87"/>
      <point x="417" y="122" type="curve" smooth="yes"/>
      <point x="278" y="175"/>
      <point x="239" y="193"/>
      <point x="239" y="273" type="curve" smooth="yes"/>
      <point x="239" y="346"/>
      <point x="292" y="383"/>
      <point x="385" y="383" type="curve" smooth="yes"/>
      <point x="471" y="383" type="line"/>
      <point x="486" y="488" type="line"/>
      <point x="389" y="488" type="line" smooth="yes"/>
      <point x="315" y="488"/>
      <point x="274" y="509"/>
      <point x="274" y="571" type="curve" smooth="yes"/>
      <point x="274" y="620"/>
      <point x="318" y="647"/>
      <point x="379" y="647" type="curve" smooth="yes"/>
      <point x="424" y="647"/>
      <point x="469" y="634"/>
      <point x="504" y="612" type="curve"/>
      <point x="573" y="697" type="line"/>
      <point x="515" y="737"/>
      <point x="445" y="759"/>
      <point x="359" y="759" type="curve" smooth="yes"/>
    </contour>
  </outline>
</glyph>
<glyph name="sigma1" format="1">
  <advance width="600"/>
  <unicode hex="03C2"/>
  <outline>
    <contour>
      <point x="189" y="549"/>
      <point x="77" y="432"/>
      <point x="77" y="279" type="curve" smooth="yes"/>
      <point x="77" y="121"/>
      <point x="160" y="67"/>
      <point x="277" y="22" type="curve" smooth="yes"/>
      <point x="349" y="-6"/>
      <point x="370" y="-18"/>
      <point x="370" y="-48" type="curve" smooth="yes"/>
      <point x="370" y="-83"/>
      <point x="337" y="-105"/>
      <point x="292" y="-128" type="curve"/>
      <point x="352" y="-226" type="line"/>
      <point x="474" y="-173"/>
      <point x="535" y="-113"/>
      <point x="535" y="-29" type="curve" smooth="yes"/>
      <point x="535" y="55"/>
      <point x="480" y="86"/>
      <point x="385" y="122" type="curve" smooth="yes"/>
      <point x="280" y="162"/>
      <point x="244" y="190"/>
      <point x="244" y="279" type="curve" smooth="yes"/>
      <point x="244" y="384"/>
      <point x="297" y="426"/>
      <point x="369" y="426" type="curve" smooth="yes"/>
      <point x="411" y="426"/>
      <point x="449" y="414"/>
      <point x="484" y="388" type="curve"/>
      <point x="553" y="483" type="line"/>
      <point x="501" y="525"/>
      <point x="438" y="549"/>
      <point x="357" y="549" type="curve" smooth="yes"/>
    </contour>
  </outline>
</glyph>
<glyph name="tau" format="1">
  <advance width="600"/>
  <unicode hex="03C4"/>
  <outline>
    <contour>
      <point x="142" y="531" type="line" smooth="yes"/>
      <point x="89" y="531"/>
      <point x="52" y="526"/>
      <point x="21" y="513" type="curve"/>
      <point x="45" y="403" type="line"/>
      <point x="76" y="412"/>
      <point x="118" y="414"/>
      <point x="147" y="414" type="curve" smooth="yes"/>
      <point x="537" y="414" type="line"/>
      <point x="537" y="531" type="line"/>
    </contour>
    <contour>
      <point x="194" y="430" type="line"/>
      <point x="194" y="161" type="line" smooth="yes"/>
      <point x="194" y="52"/>
      <point x="264" y="-17"/>
      <point x="381" y="-17" type="curve" smooth="yes"/>
      <point x="449" y="-17"/>
      <point x="499" y="-1"/>
      <point x="535" y="18" type="curve"/>
      <point x="497" y="125" type="line"/>
      <point x="475" y="116"/>
      <point x="449" y="109"/>
      <point x="421" y="109" type="curve" smooth="yes"/>
      <point x="380" y="109"/>
      <point x="354" y="125"/>
      <point x="354" y="167" type="curve" smooth="yes"/>
      <point x="354" y="430" type="line"/>
    </contour>
  </outline>
</glyph>
<glyph name="phi" format="1">
  <advance width="600"/>
  <unicode hex="03C6"/>
  <outline>
    <contour>
      <point x="283" y="549"/>
      <point x="234" y="470"/>
      <point x="234" y="324" type="curve"/>
      <point x="234" y="85" type="line"/>
      <point x="171" y="101"/>
      <point x="152" y="154"/>
      <point x="152" y="262" type="curve" smooth="yes"/>
      <point x="152" y="346"/>
      <point x="169" y="430"/>
      <point x="201" y="531" type="curve"/>
      <point x="70" y="531" type="line"/>
      <point x="43" y="456"/>
      <point x="18" y="358"/>
      <point x="18" y="240" type="curve" smooth="yes"/>
      <point x="18" y="95"/>
      <point x="81" y="4"/>
      <point x="234" y="-13" type="curve"/>
      <point x="234" y="-222" type="line"/>
      <point x="356" y="-210" type="line"/>
      <point x="356" y="-13" type="line"/>
      <point x="497" y="4"/>
      <point x="582" y="87"/>
      <point x="582" y="270" type="curve" smooth="yes"/>
      <point x="582" y="451"/>
      <point x="531" y="549"/>
      <point x="400" y="549" type="curve" smooth="yes"/>
    </contour>
    <contour>
      <point x="436" y="448"/>
      <point x="444" y="401"/>
      <point x="444" y="269" type="curve" smooth="yes"/>
      <point x="444" y="155"/>
      <point x="420" y="100"/>
      <point x="356" y="85" type="curve"/>
      <point x="356" y="324" type="line" smooth="yes"/>
      <point x="356" y="408"/>
      <point x="359" y="448"/>
      <point x="398" y="448" type="curve" smooth="yes"/>
    </contour>
  </outline>
</glyph>
<glyph name="omega" format="1">
  <advance width="600"/>
  <unicode hex="03C9"/>
  <outline>
    <contour>
      <point x="408" y="531" type="line"/>
      <point x="431" y="434"/>
      <point x="446" y="344"/>
      <point x="446" y="261" type="curve" smooth="yes"/>
      <point x="446" y="146"/>
      <point x="440" y="100"/>
      <point x="402" y="100" type="curve" smooth="yes"/>
      <point x="365" y="100"/>
      <point x="358" y="133"/>
      <point x="358" y="239" type="curve" smooth="yes"/>
      <point x="358" y="362" type="line"/>
      <point x="243" y="342" type="line"/>
      <point x="243" y="234" type="line" smooth="yes"/>
      <point x="243" y="134"/>
      <point x="236" y="100"/>
      <point x="201" y="100" type="curve" smooth="yes"/>
      <point x="164" y="100"/>
      <point x="154" y="146"/>
      <point x="154" y="261" type="curve" smooth="yes"/>
      <point x="154" y="345"/>
      <point x="168" y="433"/>
      <point x="192" y="531" type="curve"/>
      <point x="67" y="531" type="line"/>
      <point x="40" y="444"/>
      <point x="14" y="340"/>
      <point x="14" y="242" type="curve" smooth="yes"/>
      <point x="14" y="68"/>
      <point x="70" y="-17"/>
      <point x="171" y="-17" type="curve" smooth="yes"/>
      <point x="237" y="-17"/>
      <point x="277" y="13"/>
      <point x="299" y="87" type="curve"/>
      <point x="320" y="11"/>
      <point x="363" y="-17"/>
      <point x="433" y="-17" type="curve" smooth="yes"/>
      <point x="533" y="-17"/>
      <point x="586" y="70"/>
      <point x="586" y="242" type="curve" smooth="yes"/>
      <point x="586" y="340"/>
      <point x="560" y="442"/>
      <point x="533" y="531" type="curve"/>
    </contour>
    <contour>
      <point x="300" y="531" type="move" name="top"/>
    </contour>
  </outline>
</glyph>
<glyph name="uni0411" format="1">
  <advance width="600"/>
  <unicode hex="0411"/>
  <outline>
    <contour>
      <point x="56" y="693" type="line"/>
      <point x="56" y="0" type="line"/>
      <point x="300" y="0" type="line" smooth="yes"/>
      <point x="456" y="0"/>
      <point x="569" y="77"/>
      <point x="569" y="228" type="curve" smooth="yes"/>
      <point x="569" y="374"/>
      <point x="466" y="444"/>
      <point x="291" y="444" type="curve" smooth="yes"/>
      <point x="222" y="444" type="line"/>
      <point x="222" y="567" type="line"/>
      <point x="477" y="567" type="line"/>
      <point x="493" y="693" type="line"/>
    </contour>
    <contour>
      <point x="360" y="325"/>
      <point x="399" y="293"/>
      <point x="399" y="227" type="curve" smooth="yes"/>
      <point x="399" y="153"/>
      <point x="358" y="124"/>
      <point x="282" y="124" type="curve" smooth="yes"/>
      <point x="222" y="124" type="line"/>
      <point x="222" y="325" type="line"/>
      <point x="280" y="325" type="line" smooth="yes"/>
    </contour>
  </outline>
</glyph>
<glyph name="uni0413" format="1">
  <advance width="600"/>
  <unicode hex="0413"/>
  <outline>
    <contour>
      <point x="89" y="693" type="line"/>
      <point x="89" y="0" type="line"/>
      <point x="255" y="0" type="line"/>
      <point x="255" y="563" type="line"/>
      <point x="543" y="563" type="line"/>
      <point x="559" y="693" type="line"/>
    </contour>
    <contour>
      <point x="332" y="693" type="move" name="top"/>
    </contour>
    <contour>
      <point x="285" y="0" type="move" name="bottomright"/>
    </contour>
  </outline>
</glyph>
<glyph name="uni0414" format="1">
  <advance width="600"/>
  <unicode hex="0414"/>
  <outline>
    <contour>
      <point x="138" y="693" type="line"/>
      <point x="118" y="475" type="line" smooth="yes"/>
      <point x="96" y="240"/>
      <point x="73" y="170"/>
      <point x="29" y="123" type="curve"/>
      <point x="116" y="0" type="line"/>
      <point x="451" y="-1" type="line"/>
      <point x="525" y="123" type="line"/>
      <point x="525" y="693" type="line"/>
    </contour>
    <contour>
      <point x="373" y="123" type="line"/>
      <point x="159" y="123" type="line"/>
      <point x="224" y="177"/>
      <point x="251" y="260"/>
      <point x="270" y="489" type="curve" smooth="yes"/>
      <point x="277" y="576" type="line"/>
      <point x="373" y="576" type="line"/>
    </contour>
    <component base="descStraight-cy.case" xOffset="185"/>
    <component base="descStraight-cy.case" xOffset="382" xScale="-1"/>
  </outline>
</glyph>
<glyph name="uni0418" format="1">
  <advance width="600"/>
  <unicode hex="0418"/>
  <outline>
    <contour>
      <point x="237" y="0" type="line"/>
      <point x="417" y="528" type="line"/>
      <point x="421" y="528" type="line"/>
      <point x="409" y="461"/>
      <point x="397" y="362"/>
      <point x="397" y="227" type="curve" smooth="yes"/>
      <point x="397" y="0" type="line"/>
      <point x="549" y="0" type="line"/>
      <point x="549" y="693" type="line"/>
      <point x="366" y="693" type="line"/>
      <point x="183" y="164" type="line"/>
      <point x="179" y="164" type="line"/>
      <point x="190" y="229"/>
      <point x="203" y="317"/>
      <point x="203" y="461" type="curve" smooth="yes"/>
      <point x="203" y="693" type="line"/>
      <point x="51" y="693" type="line"/>
      <point x="51" y="0" type="line"/>
    </contour>
    <contour>
      <point x="300" y="693" type="move" name="top"/>
    </contour>
  </outline>
</glyph>
<glyph name="uni0427" format="1">
  <advance width="600"/>
  <unicode hex="0427"/>
  <outline>
    <contour>
      <point x="24" y="693" type="line"/>
      <point x="24" y="434" type="line" smooth="yes"/>
      <point x="24" y="278"/>
      <point x="104" y="197"/>
      <point x="240" y="197" type="curve" smooth="yes"/>
      <point x="304" y="197"/>
      <point x="355" y="218"/>
      <point x="395" y="252" type="curve"/>
      <point x="392" y="364" type="line"/>
      <point x="370" y="341"/>
      <point x="340" y="320"/>
      <point x="286" y="320" type="curve" smooth="yes"/>
      <point x="218" y="320"/>
      <point x="190" y="352"/>
      <point x="190" y="439" type="curve" smooth="yes"/>
      <point x="190" y="693" type="line"/>
    </contour>
    <contour>
      <point x="383" y="693" type="line"/>
      <point x="383" y="0" type="line"/>
      <point x="549" y="0" type="line"/>
      <point x="549" y="693" type="line"/>
    </contour>
    <contour>
      <point x="286" y="693" type="move" name="top"/>
    </contour>
    <contour>
      <point x="559" y="0" type="move" name="bottomright"/>
    </contour>
    <contour>
      <point x="373" y="0" type="move" name="bottomleft"/>
    </contour>
  </outline>
</glyph>
<glyph name="uni042D" format="1">
  <advance width="600"/>
  <unicode hex="042D"/>
  <outline>
    <contour>
      <point x="158" y="711"/>
      <point x="85" y="677"/>
      <point x="21" y="624" type="curve"/>
      <point x="99" y="534" type="line"/>
      <point x="135" y="564"/>
      <point x="181" y="591"/>
      <point x="246" y="591" type="curve" smooth="yes"/>
      <point x="334" y="591"/>
      <point x="386" y="543"/>
      <point x="392" y="413" type="curve"/>
      <point x="137" y="413" type="line"/>
      <point x="137" y="296" type="line"/>
      <point x="392" y="296" type="line"/>
      <point x="387" y="160"/>
      <point x="329" y="108"/>
      <point x="241" y="108" type="curve" smooth="yes"/>
      <point x="178" y="108"/>
      <point x="135" y="128"/>
      <point x="92" y="163" type="curve"/>
      <point x="13" y="71" type="line"/>
      <point x="70" y="15"/>
      <point x="149" y="-17"/>
      <point x="242" y="-17" type="curve" smooth="yes"/>
      <point x="432" y="-17"/>
      <point x="561" y="104"/>
      <point x="561" y="351" type="curve" smooth="yes"/>
      <point x="561" y="587"/>
      <point x="449" y="711"/>
      <point x="260" y="711" type="curve" smooth="yes"/>
    </contour>
    <contour>
      <point x="278" y="689" type="move" name="top"/>
    </contour>
  </outline>
</glyph>
<glyph name="uni042E" format="1">
  <advance width="600"/>
  <unicode hex="042E"/>
  <outline>
    <contour>
      <point x="263" y="711"/>
      <point x="211" y="603"/>
      <point x="203" y="414" type="curve"/>
      <point x="157" y="414" type="line"/>
      <point x="157" y="693" type="line"/>
      <point x="31" y="693" type="line"/>
      <point x="31" y="0" type="line"/>
      <point x="157" y="0" type="line"/>
      <point x="157" y="302" type="line"/>
      <point x="202" y="302" type="line"/>
      <point x="207" y="94"/>
      <point x="255" y="-17"/>
      <point x="394" y="-17" type="curve" smooth="yes"/>
      <point x="539" y="-17"/>
      <point x="588" y="107"/>
      <point x="588" y="347" type="curve" smooth="yes"/>
      <point x="588" y="590"/>
      <point x="541" y="711"/>
      <point x="394" y="711" type="curve" smooth="yes"/>
    </contour>
    <contour>
      <point x="440" y="602"/>
      <point x="451" y="552"/>
      <point x="451" y="347" type="curve" smooth="yes"/>
      <point x="451" y="144"/>
      <point x="439" y="92"/>
      <point x="394" y="92" type="curve" smooth="yes"/>
      <point x="348" y="92"/>
      <point x="337" y="145"/>
      <point x="337" y="348" type="curve" smooth="yes"/>
      <point x="337" y="552"/>
      <point x="350" y="602"/>
      <point x="394" y="602" type="curve" smooth="yes"/>
    </contour>
  </outline>
</glyph>
<glyph name="uni0434" format="1">
  <advance width="600"/>
  <unicode hex="0434"/>
  <outline>
    <contour>
      <point x="134" y="531" type="line"/>
      <point x="120" y="361" type="line" smooth="yes"/>
      <point x="107" y="199"/>
      <point x="90" y="153"/>
      <point x="55" y="118" type="curve"/>
      <point x="136" y="0" type="line"/>
      <point x="451" y="0" type="line"/>
      <point x="523" y="118" type="line"/>
      <point x="523" y="531" type="line"/>
    </contour>
    <contour>
      <point x="374" y="118" type="line"/>
      <point x="186" y="118" type="line"/>
      <point x="238" y="157"/>
      <point x="257" y="201"/>
      <point x="271" y="367" type="curve"/>
      <point x="275" y="420" type="line"/>
      <point x="374" y="420" type="line"/>
    </contour>
    <component base="descStraight-cy" xOffset="395" xScale="-1"/>
    <component base="descStraight-cy" xOffset="192"/>
  </outline>
</glyph>
<glyph name="uni0437" format="1">
  <advance width="600"/>
  <unicode hex="0437"/>
  <outline>
    <contour>
      <point x="159" y="222" type="line"/>
      <point x="275" y="222" type="line" smooth="yes"/>
      <point x="340" y="222"/>
      <point x="371" y="200"/>
      <point x="371" y="162" type="curve" smooth="yes"/>
      <point x="371" y="122"/>
      <point x="340" y="97"/>
      <point x="269" y="97" type="curve" smooth="yes"/>
      <point x="204" y="97"/>
      <point x="150" y="112"/>
      <point x="103" y="145" type="curve"/>
      <point x="25" y="53" type="line"/>
      <point x="81" y="10"/>
      <point x="168" y="-17"/>
      <point x="274" y="-17" type="curve" smooth="yes"/>
      <point x="426" y="-17"/>
      <point x="537" y="40"/>
      <point x="537" y="152" type="curve" smooth="yes"/>
      <point x="537" y="233"/>
      <point x="479" y="270"/>
      <point x="382" y="281" type="curve"/>
      <point x="464" y="302"/>
      <point x="510" y="342"/>
      <point x="510" y="401" type="curve" smooth="yes"/>
      <point x="510" y="497"/>
      <point x="409" y="549"/>
      <point x="281" y="549" type="curve" smooth="yes"/>
      <point x="192" y="549"/>
      <point x="102" y="527"/>
      <point x="42" y="484" type="curve"/>
      <point x="116" y="399" type="line"/>
      <point x="154" y="425"/>
      <point x="208" y="438"/>
      <point x="261" y="438" type="curve" smooth="yes"/>
      <point x="316" y="438"/>
      <point x="349" y="420"/>
      <point x="349" y="383" type="curve" smooth="yes"/>
      <point x="349" y="347"/>
      <point x="320" y="324"/>
      <point x="264" y="324" type="curve" smooth="yes"/>
      <point x="168" y="324" type="line"/>
    </contour>
    <contour>
      <point x="286" y="527" type="move" name="top"/>
    </contour>
    <contour>
      <point x="295" y="0" type="move" name="bottom"/>
    </contour>
  </outline>
</glyph>
<glyph name="uni0438" format="1">
  <advance width="600"/>
  <unicode hex="0438"/>
  <outline>
    <contour>
      <point x="368" y="531" type="line"/>
      <point x="202" y="157" type="line"/>
      <point x="198" y="157" type="line"/>
      <point x="210" y="203"/>
      <point x="220" y="282"/>
      <point x="220" y="362" type="curve" smooth="yes"/>
      <point x="220" y="531" type="line"/>
      <point x="69" y="531" type="line"/>
      <point x="69" y="0" type="line"/>
      <point x="232" y="0" type="line"/>
      <point x="398" y="373" type="line"/>
      <point x="402" y="373" type="line"/>
      <point x="391" y="334"/>
      <point x="380" y="257"/>
      <point x="380" y="167" type="curve" smooth="yes"/>
      <point x="380" y="0" type="line"/>
      <point x="531" y="0" type="line"/>
      <point x="531" y="531" type="line"/>
    </contour>
    <contour>
      <point x="300" y="531" type="move" name="top"/>
    </contour>
  </outline>
</glyph>
<glyph name="uni043A" format="1">
  <advance width="600"/>
  <unicode hex="043A"/>
  <outline>
    <contour>
      <point x="232" y="0" type="line"/>
      <point x="232" y="223" type="line"/>
      <point x="300" y="223" type="line"/>
      <point x="418" y="0" type="line"/>
      <point x="587" y="0" type="line"/>
      <point x="427" y="285" type="line"/>
      <point x="573" y="531" type="line"/>
      <point x="418" y="531" type="line"/>
      <point x="304" y="329" type="line"/>
      <point x="232" y="329" type="line"/>
      <point x="232" y="531" type="line"/>
      <point x="72" y="531" type="line"/>
      <point x="72" y="0" type="line"/>
    </contour>
    <contour>
      <point x="320" y="531" type="move" name="top"/>
    </contour>
    <contour>
      <point x="538" y="0" type="move" name="bottomright"/>
    </contour>
  </outline>
</glyph>
<glyph name="uni043B" format="1">
  <advance width="600"/>
  <unicode hex="043B"/>
  <outline>
    <contour>
      <point x="116" y="531" type="line"/>
      <point x="102" y="345" type="line" smooth="yes"/>
      <point x="87" y="152"/>
      <point x="64" y="117"/>
      <point x="13" y="81" type="curve"/>
      <point x="80" y="-20" type="line"/>
      <point x="205" y="41"/>
      <point x="242" y="108"/>
      <point x="254" y="351" type="curve" smooth="yes"/>
      <point x="257" y="414" type="line"/>
      <point x="368" y="414" type="line"/>
      <point x="368" y="0" type="line"/>
      <point x="528" y="0" type="line"/>
      <point x="528" y="531" type="line"/>
    </contour>
  </outline>
</glyph>
<glyph name="uni043C" format="1">
  <advance width="600"/>
  <unicode hex="043C"/>
  <outline>
    <contour>
      <point x="367" y="531" type="line"/>
      <point x="302" y="205" type="line"/>
      <point x="227" y="531" type="line"/>
      <point x="55" y="531" type="line"/>
      <point x="20" y="0" type="line"/>
      <point x="159" y="0" type="line"/>
      <point x="165" y="173" type="line" smooth="yes"/>
      <point x="168" y="248"/>
      <point x="170" y="316"/>
      <point x="162" y="386" type="curve"/>
      <point x="166" y="386" type="line"/>
      <point x="243" y="84" type="line"/>
      <point x="358" y="84" type="line"/>
      <point x="430" y="386" type="line"/>
      <point x="434" y="386" type="line"/>
      <point x="428" y="315"/>
      <point x="428" y="246"/>
      <point x="431" y="179" type="curve" smooth="yes"/>
      <point x="438" y="0" type="line"/>
      <point x="580" y="0" type="line"/>
      <point x="544" y="531" type="line"/>
    </contour>
  </outline>
</glyph>
<glyph name="uni044A" format="1">
  <advance width="600"/>
  <unicode hex="044A"/>
  <outline>
    <contour>
      <point x="13" y="531" type="line"/>
      <point x="13" y="417" type="line"/>
      <point x="117" y="417" type="line"/>
      <point x="117" y="0" type="line"/>
      <point x="335" y="0" type="line" smooth="yes"/>
      <point x="483" y="0"/>
      <point x="572" y="59"/>
      <point x="572" y="187" type="curve" smooth="yes"/>
      <point x="572" y="311"/>
      <point x="487" y="371"/>
      <point x="317" y="371" type="curve" smooth="yes"/>
      <point x="277" y="371" type="line"/>
      <point x="277" y="531" type="line"/>
    </contour>
    <contour>
      <point x="380" y="266"/>
      <point x="407" y="243"/>
      <point x="407" y="190" type="curve" smooth="yes"/>
      <point x="407" y="130"/>
      <point x="377" y="110"/>
      <point x="323" y="110" type="curve" smooth="yes"/>
      <point x="277" y="110" type="line"/>
      <point x="277" y="266" type="line"/>
      <point x="318" y="266" type="line" smooth="yes"/>
    </contour>
  </outline>
</glyph>
<glyph name="uni044F" format="1">
  <advance width="600"/>
  <unicode hex="044F"/>
  <outline>
    <contour>
      <point x="140" y="549"/>
      <point x="59" y="478"/>
      <point x="59" y="364" type="curve" smooth="yes"/>
      <point x="59" y="299"/>
      <point x="94" y="249"/>
      <point x="149" y="219" type="curve"/>
      <point x="19" y="0" type="line"/>
      <point x="190" y="0" type="line"/>
      <point x="287" y="185" type="line"/>
      <point x="366" y="185" type="line"/>
      <point x="366" y="0" type="line"/>
      <point x="526" y="0" type="line"/>
      <point x="526" y="526" type="line"/>
      <point x="472" y="539"/>
      <point x="396" y="549"/>
      <point x="315" y="549" type="curve" smooth="yes"/>
    </contour>
    <contour>
      <point x="335" y="444"/>
      <point x="351" y="443"/>
      <point x="366" y="441" type="curve"/>
      <point x="366" y="279" type="line"/>
      <point x="316" y="279" type="line" smooth="yes"/>
      <point x="249" y="279"/>
      <point x="223" y="305"/>
      <point x="223" y="362" type="curve" smooth="yes"/>
      <point x="223" y="413"/>
      <point x="248" y="444"/>
      <point x="313" y="444" type="curve" smooth="yes"/>
    </contour>
  </outline>
</glyph>
<glyph name="uni0459" format="1">
  <advance width="600"/>
  <unicode hex="0459"/>
  <outline>
    <contour>
      <point x="69" y="531" type="line"/>
      <point x="61" y="332" type="line" smooth="yes"/>
      <point x="53" y="139"/>
      <point x="32" y="108"/>
      <point x="-9" y="79" type="curve"/>
      <point x="42" y="-20" type="line"/>
      <point x="151" y="35"/>
      <point x="182" y="91"/>
      <point x="191" y="320" type="curve" smooth="yes"/>
      <point x="195" y="425" type="line"/>
      <point x="253" y="425" type="line"/>
      <point x="253" y="0" type="line"/>
      <point x="403" y="0" type="line" smooth="yes"/>
      <point x="523" y="0"/>
      <point x="602" y="62"/>
      <point x="602" y="184" type="curve" smooth="yes"/>
      <point x="602" y="307"/>
      <point x="538" y="366"/>
      <point x="391" y="366" type="curve" smooth="yes"/>
      <point x="382" y="366" type="line"/>
      <point x="382" y="531" type="line"/>
    </contour>
    <contour>
      <point x="446" y="272"/>
      <point x="464" y="247"/>
      <point x="464" y="186" type="curve" smooth="yes"/>
      <point x="464" y="118"/>
      <point x="441" y="97"/>
      <point x="392" y="97" type="curve" smooth="yes"/>
      <point x="382" y="97" type="line"/>
      <point x="382" y="272" type="line"/>
      <point x="391" y="272" type="line" smooth="yes"/>
    </contour>
  </outline>
</glyph>
<glyph name="uni0462" format="1">
  <advance width="600"/>
  <unicode hex="0462"/>
  <outline>
    <contour>
      <point x="424" y="575" type="line"/>
      <point x="441" y="693" type="line"/>
      <point x="-8" y="693" type="line"/>
      <point x="-8" y="575" type="line"/>
      <point x="130" y="575" type="line"/>
      <point x="130" y="0" type="line"/>
      <point x="314" y="0" type="line" smooth="yes"/>
      <point x="480" y="0"/>
      <point x="588" y="72"/>
      <point x="588" y="228" type="curve" smooth="yes"/>
      <point x="588" y="373"/>
      <point x="491" y="444"/>
      <point x="323" y="444" type="curve" smooth="yes"/>
      <point x="285" y="444" type="line"/>
      <point x="285" y="575" type="line"/>
    </contour>
    <contour>
      <point x="315" y="333" type="line" smooth="yes"/>
      <point x="391" y="333"/>
      <point x="429" y="301"/>
      <point x="429" y="227" type="curve" smooth="yes"/>
      <point x="429" y="147"/>
      <point x="389" y="117"/>
      <point x="318" y="117" type="curve" smooth="yes"/>
      <point x="285" y="117" type="line"/>
      <point x="285" y="333" type="line"/>
    </contour>
  </outline>
</glyph>
<glyph name="uni0475" format="1">
  <advance width="600"/>
  <unicode hex="0475"/>
  <outline>
    <contour>
      <point x="406" y="514"/>
      <point x="392" y="478"/>
      <point x="377" y="417" type="curve" smooth="yes"/>
      <point x="303" y="122" type="line"/>
      <point x="201" y="531" type="line"/>
      <point x="28" y="531" type="line"/>
      <point x="207" y="0" type="line"/>
      <point x="395" y="0" type="line"/>
      <point x="517" y="377" type="line" smooth="yes"/>
      <point x="541" y="452"/>
      <point x="556" y="485"/>
      <point x="579" y="519" type="curve"/>
      <point x="425" y="538" type="line"/>
    </contour>
  </outline>
</glyph>
<glyph name="uni0490" format="1">
  <advance width="600"/>
  <unicode hex="0490"/>
  <outline>
    <contour>
      <point x="406" y="848" type="line"/>
      <point x="406" y="683" type="line"/>
      <point x="559" y="693" type="line"/>
      <point x="559" y="848" type="line"/>
    </contour>
    <component base="uni0413"/>
  </outline>
</glyph>
<glyph name="uni0491" format="1">
  <advance width="600"/>
  <unicode hex="0491"/>
  <outline>
    <contour>
      <point x="539" y="531" type="line"/>
      <point x="539" y="684" type="line"/>
      <point x="394" y="684" type="line"/>
      <point x="394" y="504" type="line"/>
    </contour>
    <component base="uni0433"/>
  </outline>
</glyph>
<glyph name="uni0492" format="1">
  <advance width="600"/>
  <unicode hex="0492"/>
  <outline>
    <contour>
      <point x="114" y="433" type="line"/>
      <point x="37" y="433" type="line"/>
      <point x="37" y="334" type="line"/>
      <point x="280" y="334" type="line"/>
      <point x="422" y="334" type="line"/>
      <point x="422" y="433" type="line"/>
    </contour>
    <component base="uni0413" xOffset="25"/>
  </outline>
</glyph>
<glyph name="uni04A1" format="1">
  <advance width="600"/>
  <unicode hex="04A1"/>
  <outline>
    <contour>
      <point x="264" y="0" type="line"/>
      <point x="264" y="223" type="line"/>
      <point x="323" y="223" type="line"/>
      <point x="431" y="0" type="line"/>
      <point x="600" y="0" type="line"/>
      <point x="450" y="285" type="line"/>
      <point x="586" y="531" type="line"/>
      <point x="431" y="531" type="line"/>
      <point x="327" y="329" type="line"/>
      <point x="264" y="329" type="line"/>
      <point x="264" y="531" type="line"/>
      <point x="104" y="521" type="line"/>
      <point x="104" y="0" type="line"/>
    </contour>
    <contour>
      <point x="264" y="531" type="line"/>
      <point x="0" y="531" type="line"/>
      <point x="0" y="417" type="line"/>
      <point x="104" y="417" type="line"/>
    </contour>
  </outline>
</glyph>
<glyph name="uni04B8" format="1">
  <advance width="600"/>
  <unicode hex="04B8"/>
  <outline>
    <contour>
      <point x="259" y="555" type="line"/>
      <point x="259" y="323" type="line"/>
      <point x="259" y="125" type="line"/>
      <point x="325" y="125" type="line"/>
      <point x="325" y="555" type="line"/>
    </contour>
    <component base="uni0427"/>
  </outline>
</glyph>
<glyph name="uni04BA" format="1">
  <advance width="600"/>
  <unicode hex="04BA"/>
  <outline>
    <contour>
      <point x="298" y="471"/>
      <point x="246" y="447"/>
      <point x="205" y="412" type="curve"/>
      <point x="208" y="303" type="line"/>
      <point x="230" y="326"/>
      <point x="262" y="348"/>
      <point x="316" y="348" type="curve" smooth="yes"/>
      <point x="383" y="348"/>
      <point x="410" y="317"/>
      <point x="410" y="230" type="curve" smooth="yes"/>
      <point x="410" y="0" type="line"/>
      <point x="576" y="0" type="line"/>
      <point x="576" y="231" type="line" smooth="yes"/>
      <point x="576" y="386"/>
      <point x="504" y="471"/>
      <point x="363" y="471" type="curve" smooth="yes"/>
    </contour>
    <contour>
      <point x="51" y="693" type="line"/>
      <point x="51" y="0" type="line"/>
      <point x="217" y="0" type="line"/>
      <point x="217" y="693" type="line"/>
    </contour>
    <contour>
      <point x="586" y="0" type="move" name="bottomright"/>
    </contour>
  </outline>
</glyph>
<glyph name="uni04D8" format="1">
  <advance width="600"/>
  <unicode hex="04D8"/>
  <outline>
    <contour>
      <point x="19" y="119"/>
      <point x="107" y="-17"/>
      <point x="296" y="-17" type="curve" smooth="yes"/>
      <point x="472" y="-17"/>
      <point x="577" y="114"/>
      <point x="577" y="351" type="curve" smooth="yes"/>
      <point x="577" y="588"/>
      <point x="475" y="711"/>
      <point x="292" y="711" type="curve" smooth="yes"/>
      <point x="193" y="711"/>
      <point x="123" y="679"/>
      <point x="59" y="624" type="curve"/>
      <point x="137" y="534" type="line"/>
      <point x="174" y="565"/>
      <point x="212" y="592"/>
      <point x="277" y="592" type="curve" smooth="yes"/>
      <point x="361" y="592"/>
      <point x="408" y="535"/>
      <point x="412" y="404" type="curve"/>
      <point x="25" y="404" type="line"/>
      <point x="21" y="384"/>
      <point x="19" y="360"/>
      <point x="19" y="337" type="curve" smooth="yes"/>
    </contour>
    <contour>
      <point x="223" y="102"/>
      <point x="178" y="153"/>
      <point x="176" y="292" type="curve"/>
      <point x="412" y="292" type="line"/>
      <point x="408" y="154"/>
      <point x="366" y="102"/>
      <point x="296" y="102" type="curve" smooth="yes"/>
    </contour>
    <contour>
      <point x="292" y="694" type="move" name="top"/>
    </contour>
  </outline>
</glyph>
<glyph name="underscoredbl" format="1">
  <advance width="600"/>
  <unicode hex="2017"/>
  <outline>
    <contour>
      <point x="28" y="0" type="line"/>
      <point x="28" y="-80" type="line"/>
      <point x="572" y="-80" type="line"/>
      <point x="572" y="0" type="line"/>
    </contour>
    <contour>
      <point x="28" y="-135" type="line"/>
      <point x="28" y="-215" type="line"/>
      <point x="572" y="-215" type="line"/>
      <point x="572" y="-135" type="line"/>
    </contour>
  </outline>
</glyph>
<glyph name="arrowboth" format="1">
  <advance width="600"/>
  <unicode hex="2194"/>
  <outline>
    <contour>
      <point x="443" y="646" type="line"/>
      <point x="338" y="556" type="line"/>
      <point x="388" y="502" type="line" smooth="yes"/>
      <point x="430" y="457"/>
      <point x="467" y="421"/>
      <point x="510" y="394" type="curve"/>
      <point x="90" y="394" type="line"/>
      <point x="133" y="421"/>
      <point x="170" y="457"/>
      <point x="212" y="502" type="curve" smooth="yes"/>
      <point x="262" y="556" type="line"/>
      <point x="157" y="646" type="line"/>
      <point x="-128" y="329" type="line"/>
      <point x="161" y="8" type="line"/>
      <point x="266" y="98" type="line"/>
      <point x="212" y="156" type="line" smooth="yes"/>
      <point x="171" y="201"/>
      <point x="133" y="236"/>
      <point x="92" y="264" type="curve"/>
      <point x="508" y="264" type="line"/>
      <point x="467" y="236"/>
      <point x="430" y="201"/>
      <point x="388" y="156" type="curve" smooth="yes"/>
      <point x="335" y="98" type="line"/>
      <point x="440" y="8" type="line"/>
      <point x="728" y="329" type="line"/>
    </contour>
  </outline>
</glyph>
<glyph name="arrowupright" format="1">
  <advance width="600"/>
  <unicode hex="2197"/>
  <outline>
    <contour>
      <point x="456" y="377" type="line"/>
      <point x="445" y="337"/>
      <point x="437" y="309"/>
      <point x="440" y="245" type="curve" smooth="yes"/>
      <point x="447" y="113" type="line"/>
      <point x="590" y="122" type="line"/>
      <point x="568" y="585" type="line"/>
      <point x="105" y="607" type="line"/>
      <point x="96" y="478" type="line"/>
      <point x="252" y="470" type="line" smooth="yes"/>
      <point x="302" y="468"/>
      <point x="326" y="472"/>
      <point x="360" y="480" type="curve"/>
      <point x="10" y="141" type="line"/>
      <point x="110" y="40" type="line"/>
    </contour>
  </outline>
</glyph>
<glyph name="arrowdownleft" format="1">
  <advance width="600"/>
  <unicode hex="2199"/>
  <outline>
    <contour>
      <point x="144" y="246" type="line"/>
      <point x="155" y="286"/>
      <point x="163" y="314"/>
      <point x="160" y="378" type="curve" smooth="yes"/>
      <point x="153" y="510" type="line"/>
      <point x="10" y="501" type="line"/>
      <point x="32" y="38" type="line"/>
      <point x="495" y="16" type="line"/>
      <point x="504" y="145" type="line"/>
      <point x="348" y="153" type="line" smooth="yes"/>
      <point x="298" y="155"/>
      <point x="274" y="151"/>
      <point x="240" y="143" type="curve"/>
      <point x="590" y="482" type="line"/>
      <point x="490" y="583" type="line"/>
    </contour>
  </outline>
</glyph>
<glyph name="intersection" format="1">
  <advance width="600"/>
  <unicode hex="2229"/>
  <outline>
    <contour>
      <point x="150" y="619"/>
      <point x="28" y="497"/>
      <point x="28" y="347" type="curve" smooth="yes"/>
      <point x="28" y="0" type="line"/>
      <point x="152" y="0" type="line"/>
      <point x="152" y="347" type="line" smooth="yes"/>
      <point x="152" y="429"/>
      <point x="218" y="495"/>
      <point x="300" y="495" type="curve" smooth="yes"/>
      <point x="382" y="495"/>
      <point x="448" y="429"/>
      <point x="448" y="347" type="curve"/>
      <point x="448" y="0" type="line"/>
      <point x="572" y="0" type="line"/>
      <point x="572" y="347" type="line" smooth="yes"/>
      <point x="572" y="497"/>
      <point x="450" y="619"/>
      <point x="300" y="619" type="curve" smooth="yes"/>
    </contour>
  </outline>
</glyph>
<glyph name="SF220000" format="1">
  <advance width="600"/>
  <unicode hex="2555"/>
  <outline>
    <contour>
      <point x="-5" y="470" type="line"/>
      <point x="-5" y="390" type="line"/>
      <point x="260" y="390" type="line"/>
      <point x="260" y="310" type="line"/>
      <point x="-5" y="310" type="line"/>
      <point x="-5" y="230" type="line"/>
      <point x="260" y="230" type="line"/>
      <point x="260" y="-500" type="line"/>
      <point x="340" y="-500" type="line"/>
      <point x="340" y="470" type="line"/>
    </contour>
  </outline>
</glyph>
<glyph name="lfblock" format="1">
  <advance width="600"/>
  <unicode hex="258C"/>
  <outline>
    <contour>
      <point x="0" y="1000" type="line"/>
      <point x="0" y="-500" type="line"/>
      <point x="300" y="-500" type="line"/>
      <point x="300" y="1000" type="line"/>
    </contour>
  </outline>
</glyph>
<glyph name="uni258E" format="1">
  <advance width="600"/>
  <unicode hex="258E"/>
  <outline>
    <contour>
      <point x="0" y="1000" type="line"/>
      <point x="0" y="-500" type="line"/>
      <point x="150" y="-500" type="line"/>
      <point x="150" y="1000" type="line"/>
    </contour>
  </outline>
</glyph>
<glyph name="uni2B06" format="1">
  <advance width="600"/>
  <unicode hex="2B06"/>
  <outline>
    <contour>
      <point x="0" y="534" type="line"/>
      <point x="169" y="534" type="line"/>
      <point x="169" y="38" type="line" smooth="yes"/>
      <point x="169" y="8"/>
      <point x="189" y="-12"/>
      <point x="219" y="-12" type="curve" smooth="yes"/>
      <point x="381" y="-12" type="line" smooth="yes"/>
      <point x="411" y="-12"/>
      <point x="431" y="8"/>
      <point x="431" y="38" type="curve" smooth="yes"/>
      <point x="431" y="534" type="line"/>
      <point x="600" y="534" type="line"/>
      <point x="300" y="832" type="line"/>
    </contour>
  </outline>
</glyph>
<glyph name="caron.case" format="1">
  <advance width="600"/>
  <outline>
    <contour>
      <point x="300" y="862" type="line"/>
      <point x="167" y="947" type="line"/>
      <point x="109" y="882" type="line"/>
      <point x="251" y="751" type="line"/>
      <point x="349" y="751" type="line"/>
      <point x="490" y="882" type="line"/>
      <point x="433" y="947" type="line"/>
    </contour>
    <contour>
      <point x="300" y="693" type="move" name="_top"/>
    </contour>
  </outline>
</glyph>
<glyph name="descRound-cy" format="1">
  <advance width="600"/>
  <outline>
    <contour>
      <point x="228" y="0" type="line"/>
      <point x="303" y="-42"/>
      <point x="320" y="-85"/>
      <point x="320" y="-119" type="curve" smooth="yes"/>
      <point x="320" y="-147"/>
      <point x="303" y="-168"/>
      <point x="264" y="-168" type="curve" smooth="yes"/>
      <point x="239" y="-168"/>
      <point x="216" y="-161"/>
      <point x="202" y="-154" type="curve"/>
      <point x="170" y="-233" type="line"/>
      <point x="201" y="-250"/>
      <point x="235" y="-258"/>
      <point x="276" y="-258" type="curve" smooth="yes"/>
      <point x="371" y="-258"/>
      <point x="429" y="-211"/>
      <point x="429" y="-136" type="curve" smooth="yes"/>
      <point x="429" y="-50"/>
      <point x="361" y="-6"/>
      <point x="251" y="28" type="curve"/>
    </contour>
    <contour>
      <point x="298" y="0" type="move" name="_bottom"/>
    </contour>
  </outline>
</glyph>
<glyph name="descStraight-cy.case" format="1">
  <advance width="600"/>
  <outline>
    <contour>
      <point x="254" y="123" type="line"/>
      <point x="212" y="0" type="line"/>
      <point x="245" y="0" type="line"/>
      <point x="265" y="-175" type="line"/>
      <point x="392" y="-175" type="line"/>
      <point x="392" y="123" type="line"/>
    </contour>
    <contour>
      <point x="319" y="0" type="move" name="_bottom"/>
    </contour>
    <contour>
      <point x="332" y="0" type="move" name="_bottomleft"/>
    </contour>
    <contour>
      <point x="354" y="0" type="move" name="_bottomright"/>
    </contour>
  </outline>
</glyph>
<glyph name="descStraight-cy" format="1">
  <advance width="600"/>
  <outline>
    <contour>
      <point x="180" y="118" type="line"/>
      <point x="202" y="0" type="line"/>
      <point x="242" y="0" type="line"/>
      <point x="262" y="-175" type="line"/>
      <point x="382" y="-175" type="line"/>
      <point x="382" y="118" type="line"/>
    </contour>
    <contour>
      <point x="314" y="0" type="move" name="_bottom"/>
    </contour>
    <contour>
      <point x="327" y="0" type="move" name="_bottomleft"/>
    </contour>
    <contour>
      <point x="322" y="0" type="move" name="_bottomright"/>
    </contour>
  </outline>
</glyph>
<glyph name="dieresisgravecomb" format="1">
  <advance width="253"/>
  <outline>
    <contour>
      <point x="216" y="777"/>
      <point x="173" y="736"/>
      <point x="173" y="685" type="curve" smooth="yes"/>
      <point x="173" y="633"/>
      <point x="216" y="592"/>
      <point x="268" y="592" type="curve" smooth="yes"/>
      <point x="322" y="592"/>
      <point x="363" y="633"/>
      <point x="363" y="685" type="curve" smooth="yes"/>
      <point x="363" y="736"/>
      <point x="322" y="777"/>
      <point x="268" y="777" type="curve" smooth="yes"/>
    </contour>
    <contour>
      <point x="-49" y="777"/>
      <point x="-92" y="736"/>
      <point x="-92" y="685" type="curve" smooth="yes"/>
      <point x="-92" y="633"/>
      <point x="-49" y="592"/>
      <point x="3" y="592" type="curve" smooth="yes"/>
      <point x="57" y="592"/>
      <point x="98" y="633"/>
      <point x="98" y="685" type="curve" smooth="yes"/>
      <point x="98" y="736"/>
      <point x="57" y="777"/>
      <point x="3" y="777" type="curve" smooth="yes"/>
    </contour>
    <contour>
      <point x="-28" y="874" type="line"/>
      <point x="231" y="795" type="line"/>
      <point x="279" y="894" type="line"/>
      <point x="41" y="1018" type="line"/>
    </contour>
    <contour>
      <point x="136" y="531" type="move" name="_top"/>
    </contour>
  </outline>
</glyph>
<glyph name="five.dnom" format="1">
  <advance width="600"/>
  <outline>
    <contour>
      <point x="458" y="177"/>
      <point x="407" y="213"/>
      <point x="342" y="213" type="curve" smooth="yes"/>
      <point x="316" y="213"/>
      <point x="301" y="208"/>
      <point x="282" y="201" type="curve"/>
      <point x="282" y="243" type="line"/>
      <point x="429" y="243" type="line"/>
      <point x="441" y="321" type="line"/>
      <point x="177" y="321" type="line"/>
      <point x="177" y="128" type="line"/>
      <point x="253" y="128" type="line"/>
      <point x="266" y="134"/>
      <point x="282" y="138"/>
      <point x="300" y="138" type="curve" smooth="yes"/>
      <point x="324" y="138"/>
      <point x="338" y="127"/>
      <point x="338" y="107" type="curve" smooth="yes"/>
      <point x="338" y="88"/>
      <point x="323" y="75"/>
      <point x="290" y="75" type="curve" smooth="yes"/>
      <point x="256" y="75"/>
      <point x="231" y="84"/>
      <point x="205" y="102" type="curve"/>
      <point x="142" y="47" type="line"/>
      <point x="180" y="12"/>
      <point x="232" y="-6"/>
      <point x="295" y="-6" type="curve" smooth="yes"/>
      <point x="397" y="-6"/>
      <point x="458" y="38"/>
      <point x="458" y="107" type="curve" smooth="yes"/>
    </contour>
  </outline>
</glyph>
<glyph name="grave.case" format="1">
  <advance width="600"/>
  <outline>
    <contour>
      <point x="167" y="835" type="line"/>
      <point x="405" y="751" type="line"/>
      <point x="443" y="832" type="line"/>
      <point x="227" y="954" type="line"/>
    </contour>
    <contour>
      <point x="305" y="693" type="move" name="_top"/>
    </contour>
  </outline>
</glyph>
<glyph name="parenleft.dnom" format="1">
  <advance width="600"/>
  <outline>
    <contour>
      <point x="319" y="268"/>
      <point x="341" y="324"/>
      <point x="393" y="400" type="curve"/>
      <point x="322" y="444" type="line"/>
      <point x="259" y="363"/>
      <point x="206" y="290"/>
      <point x="206" y="174" type="curve" smooth="yes"/>
      <point x="206" y="59"/>
      <point x="259" y="-14"/>
      <point x="322" y="-96" type="curve"/>
      <point x="393" y="-51" type="line"/>
      <point x="341" y="25"/>
      <point x="319" y="82"/>
      <point x="319" y="174" type="curve" smooth="yes"/>
    </contour>
  </outline>
</glyph>
<glyph name="parenright.dnom" format="1">
  <advance width="600"/>
  <outline>
    <contour>
      <point x="281" y="82"/>
      <point x="259" y="25"/>
      <point x="207" y="-51" type="curve"/>
      <point x="278" y="-96" type="line"/>
      <point x="341" y="-14"/>
      <point x="394" y="59"/>
      <point x="394" y="174" type="curve" smooth="yes"/>
      <point x="394" y="290"/>
      <point x="341" y="363"/>
      <point x="278" y="444" type="curve"/>
      <point x="207" y="400" type="line"/>
      <point x="259" y="324"/>
      <point x="281" y="268"/>
      <point x="281" y="174" type="curve" smooth="yes"/>
    </contour>
  </outline>
</glyph>
<glyph name="three.tosf" format="1">
  <advance width="600"/>
  <outline>
    <contour>
      <point x="184" y="582"/>
      <point x="105" y="551"/>
      <point x="42" y="490" type="curve"/>
      <point x="122" y="408" type="line"/>
      <point x="162" y="446"/>
      <point x="206" y="466"/>
      <point x="256" y="466" type="curve" smooth="yes"/>
      <point x="312" y="466"/>
      <point x="351" y="437"/>
      <point x="351" y="385" type="curve" smooth="yes"/>
      <point x="351" y="329"/>
      <point x="312" y="300"/>
      <point x="252" y="300" type="curve" smooth="yes"/>
      <point x="205" y="300" type="line"/>
      <point x="187" y="195" type="line"/>
      <point x="252" y="195" type="line" smooth="yes"/>
      <point x="324" y="195"/>
      <point x="365" y="163"/>
      <point x="365" y="94" type="curve" smooth="yes"/>
      <point x="365" y="30"/>
      <point x="322" y="-5"/>
      <point x="257" y="-5" type="curve" smooth="yes"/>
      <point x="203" y="-5"/>
      <point x="157" y="16"/>
      <point x="116" y="59" type="curve"/>
      <point x="29" y="-20" type="line"/>
      <point x="82" y="-86"/>
      <point x="164" y="-124"/>
      <point x="267" y="-124" type="curve" smooth="yes"/>
      <point x="435" y="-124"/>
      <point x="529" y="-32"/>
      <point x="529" y="83" type="curve" smooth="yes"/>
      <point x="529" y="191"/>
      <point x="457" y="241"/>
      <point x="368" y="251" type="curve"/>
      <point x="454" y="274"/>
      <point x="506" y="327"/>
      <point x="506" y="409" type="curve" smooth="yes"/>
      <point x="506" y="505"/>
      <point x="423" y="582"/>
      <point x="274" y="582" type="curve" smooth="yes"/>
    </contour>
  </outline>
</glyph>
<glyph name="tonos.case" format="1">
  <advance width="600"/>
  <outline>
    <contour>
      <point x="306" y="472" type="line"/>
      <point x="409" y="693" type="line"/>
      <point x="241" y="721" type="line"/>
      <point x="190" y="495" type="line"/>
    </contour>
    <contour>
      <point x="419" y="693" type="move" name="_topleft"/>
    </contour>
  </outline>
</glyph>
<glyph name="zero.zero" format="1">
  <advance width="600"/>
  <outline>
    <contour>
      <point x="133" y="711"/>
      <point x="49" y="576"/>
      <point x="49" y="348" type="curve" smooth="yes"/>
      <point x="49" y="119"/>
      <point x="133" y="-17"/>
      <point x="300" y="-17" type="curve" smooth="yes"/>
      <point x="466" y="-17"/>
      <point x="551" y="119"/>
      <point x="551" y="348" type="curve" smooth="yes"/>
      <point x="551" y="576"/>
      <point x="466" y="711"/>
      <point x="300" y="711" type="curve" smooth="yes"/>
    </contour>
    <contour>
      <point x="378" y="595"/>
      <point x="400" y="552"/>
      <point x="400" y="348" type="curve" smooth="yes"/>
      <point x="400" y="163"/>
      <point x="370" y="98"/>
      <point x="300" y="98" type="curve" smooth="yes"/>
      <point x="221" y="98"/>
      <point x="199" y="140"/>
      <point x="199" y="348" type="curve" smooth="yes"/>
      <point x="199" y="527"/>
      <point x="230" y="595"/>
      <point x="300" y="595" type="curve" smooth="yes"/>
    </contour>
    <contour>
      <point x="189" y="177" type="line"/>
      <point x="235" y="106" type="line"/>
      <point x="419" y="486" type="line"/>
      <point x="378" y="573" type="line"/>
    </contour>
  </outline>
</glyph>
